M48
;Layer_Color=9474304
;FILE_FORMAT=2:5
INCH,LZ
;TYPE=PLATED
T1F00S00C0.00394
T2F00S00C0.00787
T3F00S00C0.01181
T4F00S00C0.01200
T5F00S00C0.02559
T6F00S00C0.03543
T7F00S00C0.03937
T8F00S00C0.04016
T9F00S00C0.06299
T10F00S00C0.09055
;TYPE=NON_PLATED
T11F00S00C0.03900
T12F00S00C0.06299
T13F00S00C0.09350
T14F00S00C0.12795
%
T01
X0434576Y02717
X04375Y02707
X04396Y02722
X0445843Y0277
X04463Y02825
X04442Y02937
X04409Y02945
X04399Y02965
X04419Y02983
X04492Y02972
X04522Y02973
X0432895Y0293676
X04231Y02925
X04234Y02889
X04235Y0287
X0423738Y0284534
T02
X0069638Y0184228
Y0187771
X0072Y0186
X0074362Y0187771
Y0184228
T03
X04137Y001994
X0413698Y0023735
Y0027569
X04137Y003144
X04177Y0031435
Y0027602
Y0023769
Y0019936
X04425Y0020004
Y0023837
Y0027671
Y0031504
X04465Y00315
Y0027667
Y0023833
Y002
X04494Y0056631
X044372Y00615
X04408Y00808
X0426Y00775
X04141Y00885
X04118Y00935
X04073Y00985
X04082Y00864
X04043Y00835
X0397Y00791
X03937Y00691
X04112Y00567
X04164Y00613
X04169Y01061
X04205Y01058
X04243
X04279Y01044
X0431975Y0112716
X04448Y01019
X0447916Y01038
X0455456Y0108419
X04535Y01186
X04511Y01235
X04736Y01135
X05047Y01134
X04964Y00996
X0368Y00959
X03638
X03667Y01084
X03619Y01129
X0364Y01209
X0367957Y0120884
X03473Y01205
Y01154
X034Y01103
X03345Y01062
X0347Y00975
X03333Y00837
X0327579Y00798
X0323327Y0083
X03159Y00817
X03141Y0078
X030487Y0078942
X03081Y00836
X0306068Y0087693
X03038Y00935
X03119Y00995
X031Y01029
X0298984Y0113268
X02886Y0121932
X02765Y011529
X026865Y0121932
X02584
X02558Y01078
X0258Y0103425
X02636Y01029
X026555Y009955
X0246538Y0100887
X02465Y0096
X02483Y00934
X0246Y00814
X02507Y00809
X02484Y00785
X0263551Y00784
X02656Y0076
X02629Y00664
X0266179Y0059031
X0258Y0056
X025294Y00559
Y00508
X024909
X0251072Y0048147
X025294Y00454
X024909
X02463Y00362
X02443Y0059
X02402Y0059016
X02673Y00485
X02705Y0037
X02822Y00424
X0286
X028237Y00465
X02952Y00519
X02972Y00424
X02988Y00383
X0303Y00589
Y0063
X0287173Y00669
X02813Y00667
X02852Y00783
X02886Y0096732
X03204Y0121932
X0321388Y0059031
X03205Y00554
X03332Y0059031
X03333Y0063
X03428Y0059031
X0341626Y00518
Y0047
X03476Y00363
X03281Y00373
X03504Y00632
X03737Y0073
X0389Y0017
Y00085
X03582
Y0017
X0262Y00139
X02398Y00138
X02101Y00414
X02052Y00461
X0187Y004
X0184
X0181
X0178
Y0036
X0181
X0184
X0187
X0168Y0038004
X016275
X01575
X015225
X0147
Y0032504
X015225
X01575
X016275
X0168
Y0027004
X016275
X01575
X015225
X0147
Y0021504
X015225
X01575
X016275
X0168
X0137568Y00245
X01375Y0029
X01327Y00214
X01275
X0129168Y00404
X01418Y0058748
X01711
X01652Y00839
X0161084Y00875
X0156086
X01471
X01427
X0138Y00936
X0144916Y0098051
X01495Y00991
X0152Y00975
X0155953Y00991
X01608Y01021
X0156937Y0106063
X0153
Y011
X0149063
Y0106063
Y0113937
X0153
X0156937
Y011
X01631Y01091
X01673Y01085
Y01038
X01693Y00977
X01741Y01011
X01742Y00908
X01943Y0091
X0191837Y010003
X0208Y00906
X02115Y00886
X02138Y00955
X022405Y0090113
X0231076Y00904
X0235324Y00955
X02353Y01015
X0234979Y01055
X0235708Y01106
X02357Y01171
X02243Y0117984
X02275Y01055
X0211469Y01124
X0211Y0123472
X01648Y0117476
X01608Y01178
X01585Y01205
X0153984
X0155976Y01231
X01429Y0115217
X01395Y01156
X01345
X013Y0122968
X0128Y0104411
X0133Y01045
X0123Y0097031
X019871Y0080719
X0229031Y00751
X0233
X0232221Y0065206
X00779Y01024
X00715Y0118
X0055442Y01236
X00399Y01024
X0036031Y004
X00381Y0021778
X0032916
X00336Y01407
Y01441
Y01475
Y01509
Y01543
X0041
Y01509
Y01475
Y01441
Y01407
X00262
Y01441
Y01475
Y01509
Y01543
X00188
Y01509
Y01475
Y01441
Y01407
X00114
Y01441
Y01475
Y01509
Y01543
X0012Y01698
X001635
X00207
Y0176
X001635
X0012
Y01827
Y018665
Y01906
X001635Y01827
X00207
X0063679Y01823
Y0189294
X0063776Y01947
X00696Y02002
X0074Y02
X0073968Y0215
X0068087Y02148
X0070031Y02287
X0061Y0166
X0062379Y0154939
X00799Y0152
X00778Y01601
X0054Y01717
X00555Y01285
X00839Y0130332
X00879Y0151976
X0086369Y0165
X0086469Y01701
X0082968Y0185214
X01616Y0172
X01802Y01912
X01708Y02112
X01759Y02638
X0167Y02712
X0184Y02764
X02232Y0182064
X02209Y0176561
X02135Y0167913
Y0157891
X02232Y01486
X0223155Y0145091
X0230113Y01412
X02332Y0144194
X0232968Y01336
X0228913Y0135231
X023427Y01271
X0213Y0132531
X02108Y01393
X0229Y01523
X02314Y01859
X01739Y01252
X01651Y012597
X01649Y01301
X01392Y0128483
X01345
X02458Y0132937
X02459Y0137
Y0141
X02458Y01486
X02466Y01544
Y0164532
X02534Y01763
X02561Y01783
X0260942Y01804
X02636Y01764
X02708Y01744
X027343Y01824
X02686Y0183
X0279299Y0182418
X02924Y01829
X02973Y01931
X02972Y0196
X03017Y01952
Y02058
X0303Y02135
X03081Y02241
X0312
X03159
X03139Y02268
X031
X0306079Y0226816
X02999Y02301
X0297Y0234412
X0299Y024
X02893Y024037
X02899Y02288
X0284783Y0228
X0279791Y022903
X0276669Y0235339
X0276525Y0241582
X0271864Y0241521
Y0252
X02823Y0252394
X0303835Y02549
X0311992Y0253692
X0311012Y0258
X0313847Y0261262
X0314937Y02728
X030935Y0270621
X03037Y0270042
X0297468Y02666
X02753Y0275
Y028
X02515Y02786
X02427Y02614
X0239Y02571
X02581Y02458
X02582Y02288
X02505Y0224
X02448Y0219
X0239705Y02129
X02506Y02
Y01959
X02632Y02
X02695Y02028
X02745Y01983
X0289Y01984
X02885Y02035
X02895Y021889
X02944Y0221969
X0276763Y02138
X02705Y02199
X03238Y02209
X03239Y02263
X0319Y02267
X0320569Y02312
X03265Y02339
X0328379Y0236079
X03277Y0242
X032965Y0245189
X03236Y02441
Y02381
X0315431Y02373
X031536Y024477
X0307771
Y0237379
X0321Y02514
X0321084Y0255149
X0326Y02562
X0326Y0268752
X03379Y02641
X03507Y0249591
X03571Y02518
X0361Y02557
X03749Y02688
X03809
X03867
X0366808Y02337
X03547Y01999
X03546Y0196
X0338Y01967
X033797Y0193487
X0332Y0195
X03306Y01986
X03235Y0197613
X0323621Y0193379
X03186Y01928
X0322606Y01828
X03187Y01773
Y01506
X03015Y01491
X02968Y0141
X02885Y01369
X02853Y01457
X02734Y01431
X0271Y0139
X02687Y01285
X02585Y01309
X0254Y01341
X02658Y01507
X02793Y01672
X02851Y0172
X02951Y01566
X03423Y0147
X03496Y0144764
X0346978Y0137888
X03616Y01329
X03643Y01285
X0368Y01309
X03713Y0139771
X0375416Y01386
X03647Y014
X0366Y01501
X03724Y01485
X0379Y0160556
X03736Y0166
X0372763Y0178384
X0368034Y01749
X0364032Y01746
X03493Y01706
Y01659
X034428Y0183
X03767Y0191
X0379956Y01965
X0388Y02053
Y01729
Y01565
X03906Y0158516
X03845Y01418
X0323921Y02041
X03306Y02165
X0393Y02055
X04007Y02212
X04044Y02263
X04071Y02313
X04185Y02312
Y02263
Y02213
Y02165
X04184Y02115
X04185Y02066
Y02015
X042Y01786
X04093
Y01757
X04007Y01701
X04098Y015785
X04205Y01579
X04228Y01537
X04205Y01676
X0431975Y01698
X04346Y01655
X04455Y01613
X04493Y0159955
X04559Y0160163
X04536Y0171196
X04483Y01712
X04475Y01926
X0443532Y01925
X04545Y01999
X04518Y02069
X04488Y021
X04421Y0221
X04454Y02401
X04481Y02558
X04542Y0256
X04419Y02559
X04406Y026328
X0438Y02679
X04331Y02683
X04304Y02686
X04131Y0266
X04118Y0261237
X0407837Y02572
X03999Y02563
X03958Y02613
X0399963Y0266134
X04076Y02704
X0427Y0251031
X04372
X0435165Y02485
X04542Y02704
X04541Y02756
X04712Y0273
X04753Y02642
X04832
X0496449Y02381
X0504598Y02326
Y02275
Y02224
X05046Y02076
X0504598Y01976
X0496465Y01835
X04966Y01536
X05046Y01484
Y01435
Y01385
X04499Y01454
X04405
X03962Y01448
X04663Y01656
X04685Y01975
X04756Y02075
Y02125
Y02173
Y02275
X04648Y02218
X0463Y0283968
X04681Y02896
X04595Y02918
X04629Y02959
X04635Y0302343
X0463682Y03093
X0469328Y0308543
X04756Y0297398
Y0293784
X0447517Y0307494
X04351Y02989
X04299Y03004
X04179Y03
X04181Y03049
X04251Y03105
X04179Y02905
X04191Y0282422
X04079Y02857
Y02915
Y02954
X0407865Y03002
X04057Y02893
X04103Y03308
X03909Y03239
X03713
X0352Y03203
Y03007
X0366808Y03038
X03558Y0283531
X03376Y02825
X03398Y02872
X03343Y02868
X03306Y02863
X02753Y0285
X0275325Y0291
X02719Y0302
X02661Y03019
X0258144Y02966
X0243831Y0296583
X02396Y0306
X0244Y0325
X02558Y03178
X02425Y02807
X02311Y02883
X02357Y02968
X01912Y0295
X0184Y02908
X018Y0290485
X0175787Y0290981
X0169521Y02904
X01669Y02899
X01668Y02993
X01713Y02992
X01616Y0295
X015674Y02935
X01455Y02971
X0130669Y0297
X0127Y03054
X0106763Y03132
X010215
X00968
Y0296
X010215
X0106763
X0154103Y0311032
X0165355Y03266
X0174016Y03267
X01826Y03266
X01803Y03072
X0195927Y03129
X01741Y02811
X0074Y029801
X0068833Y029792
Y0304491
X0074Y0304582
Y0311153
X0068833Y0311063
Y0317634
X0074Y0317725
X0074Y0324706
X0068833
X0063667
X00585
X0053333
X0048167
X0043
X0037833
X0032611
X00275
Y033
X0032611
X0037722
X0042833
X0047944
X0053056
X0058167
X0063278
X0068833
X00735
X0032611Y0318225
X00275Y0318134
Y0311563
X0032611Y0311653
Y0305082
X00275Y0304991
Y029842
X0032611Y029851
T04
X0427913Y0275913
X0432638
X0437362
X0442087
Y0280638
X0437362
X0432638
X0427913
Y0285362
Y0290087
X0432638
Y0285362
X0437362
Y0290087
X0442087
Y0285362
T05
X0483213Y02865
Y02915
T06
X0085501Y0069882
X0095501
X0105501
X0100501Y0079882
X0090501
X0080501
X0070501
X0060501
X0065501Y0069882
X0075501
T07
X0083496Y029322
X0102Y028141
Y0305031
T08
X0099103Y0028819
X0109103
X0066898
X0056898
T09
X0113493Y005689
X0052508
T10
X0285134Y0293843
X0336866
T11
X04385Y01655
X04685Y0169496
Y0161504
Y0213004
Y0220996
X04385Y0217
T12
X0408799Y0014319
X0451201
T13
X04385Y01555
Y01755
X0461
Y01555
Y0207
Y0227
X04385
Y0207
T14
X0105501Y0044882
X0060501
M30
