G04*
G04 #@! TF.GenerationSoftware,Altium Limited,Altium Designer,19.1.8 (144)*
G04*
G04 Layer_Color=39423*
%FSLAX25Y25*%
%MOIN*%
G70*
G01*
G75*
%ADD11C,0.00787*%
%ADD13C,0.01968*%
%ADD27C,0.00100*%
D11*
X377213Y235272D02*
X376032D01*
X376622D01*
Y231730D01*
X377213D01*
X376032D01*
X374261Y235272D02*
X371899D01*
X373080D01*
Y231730D01*
X370719Y231139D02*
X368357D01*
X367177Y231730D02*
Y234091D01*
X365996Y235272D01*
X364815Y234091D01*
Y231730D01*
Y233501D01*
X367177D01*
X363634Y231730D02*
X361863D01*
X361273Y232320D01*
X361863Y232910D01*
X363044D01*
X363634Y233501D01*
X363044Y234091D01*
X361273D01*
X360092Y231730D02*
X358321D01*
X357731Y232320D01*
X358321Y232910D01*
X359502D01*
X360092Y233501D01*
X359502Y234091D01*
X357731D01*
X354779Y231730D02*
X355960D01*
X356550Y232320D01*
Y233501D01*
X355960Y234091D01*
X354779D01*
X354189Y233501D01*
Y232910D01*
X356550D01*
X352417Y234681D02*
Y234091D01*
X353008D01*
X351827D01*
X352417D01*
Y232320D01*
X351827Y231730D01*
X350056Y231139D02*
X347695D01*
X346514Y235272D02*
X344152D01*
X345333D01*
Y231730D01*
X342972Y234091D02*
Y231730D01*
Y232910D01*
X342381Y233501D01*
X341791Y234091D01*
X341201D01*
X338839D02*
X337659D01*
X337068Y233501D01*
Y231730D01*
X338839D01*
X339430Y232320D01*
X338839Y232910D01*
X337068D01*
X333526Y234091D02*
X335297D01*
X335887Y233501D01*
Y232320D01*
X335297Y231730D01*
X333526D01*
X332345D02*
Y235272D01*
Y232910D02*
X330574Y234091D01*
X332345Y232910D02*
X330574Y231730D01*
X328803D02*
X327622D01*
X328213D01*
Y234091D01*
X328803D01*
X325851Y231730D02*
Y234091D01*
X324080D01*
X323490Y233501D01*
Y231730D01*
X321128Y230549D02*
X320538D01*
X319948Y231139D01*
Y234091D01*
X321719D01*
X322309Y233501D01*
Y232320D01*
X321719Y231730D01*
X319948D01*
X318767Y231139D02*
X316406D01*
X315225Y231730D02*
Y235272D01*
X313454D01*
X312863Y234681D01*
Y233501D01*
X313454Y232910D01*
X315225D01*
X314044D02*
X312863Y231730D01*
X311092Y234091D02*
X309912D01*
X309321Y233501D01*
Y231730D01*
X311092D01*
X311683Y232320D01*
X311092Y232910D01*
X309321D01*
X305779Y234091D02*
X307550D01*
X308140Y233501D01*
Y232320D01*
X307550Y231730D01*
X305779D01*
X304598D02*
Y235272D01*
Y232910D02*
X302827Y234091D01*
X304598Y232910D02*
X302827Y231730D01*
X301056Y231139D02*
X298695D01*
X295153Y234681D02*
X295743Y235272D01*
X296924D01*
X297514Y234681D01*
Y232320D01*
X296924Y231730D01*
X295743D01*
X295153Y232320D01*
X293382Y231730D02*
X292201D01*
X291610Y232320D01*
Y233501D01*
X292201Y234091D01*
X293382D01*
X293972Y233501D01*
Y232320D01*
X293382Y231730D01*
X290430D02*
Y234091D01*
X288659D01*
X288068Y233501D01*
Y231730D01*
X286297Y234681D02*
Y234091D01*
X286888D01*
X285707D01*
X286297D01*
Y232320D01*
X285707Y231730D01*
X283936Y234091D02*
Y231730D01*
Y232910D01*
X283345Y233501D01*
X282755Y234091D01*
X282165D01*
X279803Y231730D02*
X278623D01*
X278032Y232320D01*
Y233501D01*
X278623Y234091D01*
X279803D01*
X280394Y233501D01*
Y232320D01*
X279803Y231730D01*
X276851D02*
X275671D01*
X276261D01*
Y235272D01*
X276851D01*
X273900Y231730D02*
X272719D01*
X273309D01*
Y235272D01*
X273900D01*
X269177Y231730D02*
X270357D01*
X270948Y232320D01*
Y233501D01*
X270357Y234091D01*
X269177D01*
X268586Y233501D01*
Y232910D01*
X270948D01*
X267406Y234091D02*
Y231730D01*
Y232910D01*
X266815Y233501D01*
X266225Y234091D01*
X265635D01*
X377213Y224408D02*
Y227951D01*
X375442D01*
X374851Y227360D01*
Y226180D01*
X375442Y225589D01*
X377213D01*
X371309Y227360D02*
X371899Y227951D01*
X373080D01*
X373670Y227360D01*
Y224999D01*
X373080Y224408D01*
X371899D01*
X371309Y224999D01*
X370128Y227951D02*
Y224408D01*
X368357D01*
X367767Y224999D01*
Y225589D01*
X368357Y226180D01*
X370128D01*
X368357D01*
X367767Y226770D01*
Y227360D01*
X368357Y227951D01*
X370128D01*
X363044D02*
Y225589D01*
X361863Y224408D01*
X360683Y225589D01*
Y227951D01*
X357140D02*
X359502D01*
Y224408D01*
X357140D01*
X359502Y226180D02*
X358321D01*
X355960Y224408D02*
Y227951D01*
X354189D01*
X353598Y227360D01*
Y226180D01*
X354189Y225589D01*
X355960D01*
X354779D02*
X353598Y224408D01*
X350056Y227360D02*
X350646Y227951D01*
X351827D01*
X352417Y227360D01*
Y226770D01*
X351827Y226180D01*
X350646D01*
X350056Y225589D01*
Y224999D01*
X350646Y224408D01*
X351827D01*
X352417Y224999D01*
X348875Y227951D02*
X347695D01*
X348285D01*
Y224408D01*
X348875D01*
X347695D01*
X344152Y227951D02*
X345333D01*
X345923Y227360D01*
Y224999D01*
X345333Y224408D01*
X344152D01*
X343562Y224999D01*
Y227360D01*
X344152Y227951D01*
X342381Y224408D02*
Y227951D01*
X340020Y224408D01*
Y227951D01*
X328213Y227360D02*
X327622Y227951D01*
X326442D01*
X325851Y227360D01*
Y224999D01*
X326442Y224408D01*
X327622D01*
X328213Y224999D01*
Y227360D01*
X324671Y224408D02*
Y224999D01*
X324080D01*
Y224408D01*
X324671D01*
X321719D02*
X320538D01*
X321128D01*
Y227951D01*
X321719Y227360D01*
X377213Y218268D02*
Y221810D01*
X375442D01*
X374851Y221220D01*
Y220039D01*
X375442Y219449D01*
X377213D01*
X371309Y221220D02*
X371899Y221810D01*
X373080D01*
X373670Y221220D01*
Y218858D01*
X373080Y218268D01*
X371899D01*
X371309Y218858D01*
X370128Y221810D02*
Y218268D01*
X368357D01*
X367767Y218858D01*
Y219449D01*
X368357Y220039D01*
X370128D01*
X368357D01*
X367767Y220630D01*
Y221220D01*
X368357Y221810D01*
X370128D01*
X363044Y218268D02*
Y220630D01*
X361863Y221810D01*
X360683Y220630D01*
Y218268D01*
Y220039D01*
X363044D01*
X357140Y221220D02*
X357731Y221810D01*
X358911D01*
X359502Y221220D01*
Y220630D01*
X358911Y220039D01*
X357731D01*
X357140Y219449D01*
Y218858D01*
X357731Y218268D01*
X358911D01*
X359502Y218858D01*
X353598Y221220D02*
X354189Y221810D01*
X355369D01*
X355960Y221220D01*
Y220630D01*
X355369Y220039D01*
X354189D01*
X353598Y219449D01*
Y218858D01*
X354189Y218268D01*
X355369D01*
X355960Y218858D01*
X350056Y221810D02*
X352417D01*
Y218268D01*
X350056D01*
X352417Y220039D02*
X351237D01*
X348875Y218268D02*
Y221810D01*
X347695Y220630D01*
X346514Y221810D01*
Y218268D01*
X345333Y221810D02*
Y218268D01*
X343562D01*
X342972Y218858D01*
Y219449D01*
X343562Y220039D01*
X345333D01*
X343562D01*
X342972Y220630D01*
Y221220D01*
X343562Y221810D01*
X345333D01*
X341791D02*
Y218268D01*
X339430D01*
X338249Y221810D02*
Y221220D01*
X337068Y220039D01*
X335887Y221220D01*
Y221810D01*
X337068Y220039D02*
Y218268D01*
X327032D02*
Y221810D01*
X325851D02*
Y218268D01*
X327622Y220630D02*
X325851D01*
X325261D01*
X327622Y219449D02*
X325261D01*
X323490Y218268D02*
Y221810D01*
X322309D02*
Y218268D01*
X324080Y220630D02*
X322309D01*
X321719D01*
X324080Y219449D02*
X321719D01*
X319948Y218268D02*
Y221810D01*
X318767D02*
Y218268D01*
X320538Y220630D02*
X318767D01*
X318177D01*
X320538Y219449D02*
X318177D01*
X316406Y218268D02*
Y221810D01*
X315225D02*
Y218268D01*
X316996Y220630D02*
X315225D01*
X314634D01*
X316996Y219449D02*
X314634D01*
X312863Y218268D02*
Y221810D01*
X311683D02*
Y218268D01*
X313454Y220630D02*
X311683D01*
X311092D01*
X313454Y219449D02*
X311092D01*
X309321Y218268D02*
Y221810D01*
X308140D02*
Y218268D01*
X309912Y220630D02*
X308140D01*
X307550D01*
X309912Y219449D02*
X307550D01*
X305779Y218268D02*
Y221810D01*
X304598D02*
Y218268D01*
X306369Y220630D02*
X304598D01*
X304008D01*
X306369Y219449D02*
X304008D01*
X374851Y215079D02*
X375442Y215670D01*
X376622D01*
X377213Y215079D01*
Y212718D01*
X376622Y212128D01*
X375442D01*
X374851Y212718D01*
X371899Y215670D02*
X373080D01*
X373670Y215079D01*
Y212718D01*
X373080Y212128D01*
X371899D01*
X371309Y212718D01*
Y215079D01*
X371899Y215670D01*
X370128Y212128D02*
Y215670D01*
X368948Y214489D01*
X367767Y215670D01*
Y212128D01*
X366586D02*
Y215670D01*
X364815D01*
X364225Y215079D01*
Y213899D01*
X364815Y213308D01*
X366586D01*
X363044Y215670D02*
Y212128D01*
X360683D01*
X357140Y215670D02*
X359502D01*
Y212128D01*
X357140D01*
X359502Y213899D02*
X358321D01*
X355960Y215670D02*
X353598D01*
X354779D01*
Y212128D01*
X350056Y215670D02*
X352417D01*
Y212128D01*
X350056D01*
X352417Y213899D02*
X351237D01*
X345333Y215670D02*
Y212718D01*
X344743Y212128D01*
X343562D01*
X342972Y212718D01*
Y215670D01*
X341791Y212128D02*
Y215670D01*
X339430Y212128D01*
Y215670D01*
X338249D02*
X337068D01*
X337659D01*
Y212128D01*
X338249D01*
X337068D01*
X335297Y215670D02*
X332936D01*
X334116D01*
Y212128D01*
X327622D02*
Y215670D01*
X326442D02*
Y212128D01*
X328213Y214489D02*
X326442D01*
X325851D01*
X328213Y213308D02*
X325851D01*
X324080Y212128D02*
Y215670D01*
X322900D02*
Y212128D01*
X324671Y214489D02*
X322900D01*
X322309D01*
X324671Y213308D02*
X322309D01*
X320538Y212128D02*
Y215670D01*
X319357D02*
Y212128D01*
X321128Y214489D02*
X319357D01*
X318767D01*
X321128Y213308D02*
X318767D01*
X316996Y212128D02*
Y215670D01*
X315815D02*
Y212128D01*
X317586Y214489D02*
X315815D01*
X315225D01*
X317586Y213308D02*
X315225D01*
X313454Y212128D02*
Y215670D01*
X312273D02*
Y212128D01*
X314044Y214489D02*
X312273D01*
X311683D01*
X314044Y213308D02*
X311683D01*
X309912Y212128D02*
Y215670D01*
X308731D02*
Y212128D01*
X310502Y214489D02*
X308731D01*
X308140D01*
X310502Y213308D02*
X308140D01*
X306369Y212128D02*
Y215670D01*
X305189D02*
Y212128D01*
X306960Y214489D02*
X305189D01*
X304598D01*
X306960Y213308D02*
X304598D01*
X376622Y205987D02*
Y209529D01*
X375442D02*
Y205987D01*
X377213Y208349D02*
X375442D01*
X374851D01*
X377213Y207168D02*
X374851D01*
X373080Y205987D02*
Y209529D01*
X371899D02*
Y205987D01*
X373670Y208349D02*
X371899D01*
X371309D01*
X373670Y207168D02*
X371309D01*
X369538Y205987D02*
Y209529D01*
X368357D02*
Y205987D01*
X370128Y208349D02*
X368357D01*
X367767D01*
X370128Y207168D02*
X367767D01*
X365996Y205987D02*
Y209529D01*
X364815D02*
Y205987D01*
X366586Y208349D02*
X364815D01*
X364225D01*
X366586Y207168D02*
X364225D01*
X362454Y205987D02*
Y209529D01*
X361273D02*
Y205987D01*
X363044Y208349D02*
X361273D01*
X360683D01*
X363044Y207168D02*
X360683D01*
X358911Y205987D02*
Y209529D01*
X357731D02*
Y205987D01*
X359502Y208349D02*
X357731D01*
X357140D01*
X359502Y207168D02*
X357140D01*
X355369Y205987D02*
Y209529D01*
X354189D02*
Y205987D01*
X355960Y208349D02*
X354189D01*
X353598D01*
X355960Y207168D02*
X353598D01*
X345430Y114065D02*
X346742Y115377D01*
X349365D01*
X350677Y114065D01*
Y112753D01*
X349365Y111441D01*
X346742D01*
X345430Y110129D01*
Y108817D01*
X346742Y107505D01*
X349365D01*
X350677Y108817D01*
X338870Y107505D02*
X341494D01*
X342806Y108817D01*
Y111441D01*
X341494Y112753D01*
X338870D01*
X337558Y111441D01*
Y110129D01*
X342806D01*
X334934Y112753D02*
Y107505D01*
Y110129D01*
X333622Y111441D01*
X332311Y112753D01*
X330998D01*
X327063Y107505D02*
X324439D01*
X325751D01*
Y112753D01*
X327063D01*
X319191D02*
X316567D01*
X315256Y111441D01*
Y107505D01*
X319191D01*
X320503Y108817D01*
X319191Y110129D01*
X315256D01*
X312632Y107505D02*
X310008D01*
X311320D01*
Y115377D01*
X312632D01*
X306072Y107505D02*
Y112753D01*
X302136D01*
X300825Y111441D01*
Y107505D01*
X298201Y112753D02*
Y108817D01*
X296889Y107505D01*
X292953D01*
Y112753D01*
X290329Y107505D02*
Y112753D01*
X289017D01*
X287705Y111441D01*
Y107505D01*
Y111441D01*
X286393Y112753D01*
X285082Y111441D01*
Y107505D01*
X282458Y115377D02*
Y107505D01*
X278522D01*
X277210Y108817D01*
Y110129D01*
Y111441D01*
X278522Y112753D01*
X282458D01*
X270651Y107505D02*
X273274D01*
X274586Y108817D01*
Y111441D01*
X273274Y112753D01*
X270651D01*
X269339Y111441D01*
Y110129D01*
X274586D01*
X266715Y112753D02*
Y107505D01*
Y110129D01*
X265403Y111441D01*
X264091Y112753D01*
X262779D01*
X245724Y114065D02*
X247036Y115377D01*
X249660D01*
X250972Y114065D01*
Y112753D01*
X249660Y111441D01*
X247036D01*
X245724Y110129D01*
Y108817D01*
X247036Y107505D01*
X249660D01*
X250972Y108817D01*
X241789Y114065D02*
Y112753D01*
X243100D01*
X240476D01*
X241789D01*
Y108817D01*
X240476Y107505D01*
X236541D02*
X233917D01*
X235229D01*
Y112753D01*
X236541D01*
X224734D02*
X228669D01*
X229981Y111441D01*
Y108817D01*
X228669Y107505D01*
X224734D01*
X222110D02*
Y115377D01*
Y110129D02*
X218174Y112753D01*
X222110Y110129D02*
X218174Y107505D01*
X210303D02*
X212926D01*
X214238Y108817D01*
Y111441D01*
X212926Y112753D01*
X210303D01*
X208991Y111441D01*
Y110129D01*
X214238D01*
X206367Y112753D02*
Y107505D01*
Y110129D01*
X205055Y111441D01*
X203743Y112753D01*
X202431D01*
X190624Y107505D02*
Y112753D01*
X188000Y115377D01*
X185376Y112753D01*
Y107505D01*
Y111441D01*
X190624D01*
X182752Y112753D02*
Y107505D01*
Y110129D01*
X181440Y111441D01*
X180129Y112753D01*
X178817D01*
X170945Y107505D02*
X173569D01*
X174881Y108817D01*
Y111441D01*
X173569Y112753D01*
X170945D01*
X169633Y111441D01*
Y110129D01*
X174881D01*
X165698Y112753D02*
X163074D01*
X161762Y111441D01*
Y107505D01*
X165698D01*
X167009Y108817D01*
X165698Y110129D01*
X161762D01*
D13*
X383500Y83882D02*
Y139000D01*
X127594Y83882D02*
Y139000D01*
D27*
X364750Y267400D02*
X377450D01*
X353950D02*
X362250D01*
X342550D02*
X344550D01*
X328550D02*
X334750D01*
X318350D02*
X324450D01*
X364750Y267300D02*
X377450D01*
X353350D02*
X362250D01*
X342050D02*
X345150D01*
X328550D02*
X334750D01*
X318350D02*
X324550D01*
X364750Y267200D02*
X377450D01*
X352950D02*
X362250D01*
X341650D02*
X345450D01*
X328450D02*
X334750D01*
X318350D02*
X324550D01*
X364750Y267100D02*
X377450D01*
X352650D02*
X362250D01*
X341450D02*
X345750D01*
X328450D02*
X334750D01*
X318350D02*
X324550D01*
X364750Y267000D02*
X377450D01*
X352350D02*
X362250D01*
X341150D02*
X346050D01*
X328450D02*
X334750D01*
X318350D02*
X324550D01*
X364750Y266900D02*
X377450D01*
X352150D02*
X362250D01*
X340950D02*
X346250D01*
X328450D02*
X334750D01*
X318350D02*
X324550D01*
X364750Y266800D02*
X377450D01*
X351950D02*
X362250D01*
X340750D02*
X346450D01*
X328450D02*
X334750D01*
X318350D02*
X324550D01*
X364750Y266700D02*
X377450D01*
X351750D02*
X362250D01*
X340650D02*
X346650D01*
X328450D02*
X334750D01*
X318350D02*
X324650D01*
X364750Y266600D02*
X377450D01*
X351650D02*
X362250D01*
X340450D02*
X346750D01*
X328350D02*
X334750D01*
X318350D02*
X324650D01*
X364750Y266500D02*
X377450D01*
X351550D02*
X362250D01*
X340350D02*
X346950D01*
X328350D02*
X334750D01*
X318350D02*
X324650D01*
X364750Y266400D02*
X377450D01*
X351450D02*
X362250D01*
X340250D02*
X347050D01*
X328350D02*
X334750D01*
X318350D02*
X324650D01*
X364750Y266300D02*
X377450D01*
X351350D02*
X362250D01*
X340150D02*
X347150D01*
X328350D02*
X334750D01*
X318350D02*
X324650D01*
X364750Y266200D02*
X377450D01*
X351250D02*
X362250D01*
X340050D02*
X347250D01*
X328350D02*
X334750D01*
X318350D02*
X324750D01*
X364750Y266100D02*
X377450D01*
X351150D02*
X362250D01*
X339950D02*
X347350D01*
X328250D02*
X334750D01*
X318350D02*
X324750D01*
X364750Y266000D02*
X377450D01*
X351050D02*
X362250D01*
X339850D02*
X347450D01*
X328250D02*
X334750D01*
X318350D02*
X324750D01*
X364750Y265900D02*
X377450D01*
X350950D02*
X362250D01*
X339750D02*
X347550D01*
X328250D02*
X334750D01*
X318350D02*
X324750D01*
X364750Y265800D02*
X377450D01*
X350950D02*
X362250D01*
X339750D02*
X347650D01*
X328250D02*
X334750D01*
X318350D02*
X324750D01*
X364750Y265700D02*
X377450D01*
X350850D02*
X362250D01*
X339650D02*
X347750D01*
X328250D02*
X334750D01*
X318350D02*
X324850D01*
X364750Y265600D02*
X377450D01*
X350850D02*
X362250D01*
X339650D02*
X347750D01*
X328150D02*
X334750D01*
X318350D02*
X324850D01*
X364750Y265500D02*
X377450D01*
X350750D02*
X362250D01*
X339550D02*
X347850D01*
X328150D02*
X334750D01*
X318350D02*
X324850D01*
X364750Y265400D02*
X377450D01*
X350750D02*
X362250D01*
X339550D02*
X347950D01*
X328150D02*
X334750D01*
X318350D02*
X324850D01*
X364750Y265300D02*
X377450D01*
X350650D02*
X362250D01*
X339450D02*
X347950D01*
X328150D02*
X334750D01*
X318350D02*
X324850D01*
X364750Y265200D02*
X377450D01*
X350650D02*
X362250D01*
X339450D02*
X347950D01*
X328150D02*
X334750D01*
X318350D02*
X324950D01*
X364750Y265100D02*
X377450D01*
X350650D02*
X362250D01*
X339450D02*
X348050D01*
X328150D02*
X334750D01*
X318350D02*
X324950D01*
X364750Y265000D02*
X377450D01*
X350550D02*
X362250D01*
X339450D02*
X348050D01*
X328050D02*
X334750D01*
X318350D02*
X324950D01*
X364750Y264900D02*
X377450D01*
X350550D02*
X362250D01*
X339350D02*
X348050D01*
X328050D02*
X334750D01*
X318350D02*
X324950D01*
X364750Y264800D02*
X377450D01*
X350550D02*
X362250D01*
X339350D02*
X348150D01*
X328050D02*
X334750D01*
X318350D02*
X324950D01*
X364750Y264700D02*
X377450D01*
X350450D02*
X362250D01*
X339350D02*
X348150D01*
X328050D02*
X334750D01*
X318350D02*
X325050D01*
X364750Y264600D02*
X377450D01*
X350450D02*
X362250D01*
X339350D02*
X348150D01*
X328050D02*
X334750D01*
X318350D02*
X325050D01*
X364750Y264500D02*
X377450D01*
X350450D02*
X362250D01*
X343950D02*
X348150D01*
X339350D02*
X343250D01*
X327950D02*
X334750D01*
X318350D02*
X325050D01*
X364750Y264400D02*
X377450D01*
X350450D02*
X362250D01*
X344150D02*
X348250D01*
X339350D02*
X343050D01*
X327950D02*
X334750D01*
X318350D02*
X325050D01*
X364750Y264300D02*
X377450D01*
X350450D02*
X362250D01*
X344350D02*
X348250D01*
X339350D02*
X342850D01*
X327950D02*
X334750D01*
X318350D02*
X325050D01*
X364750Y264200D02*
X377450D01*
X350350D02*
X362250D01*
X344450D02*
X348250D01*
X339350D02*
X342850D01*
X327950D02*
X334750D01*
X318350D02*
X325150D01*
X364750Y264100D02*
X377450D01*
X350350D02*
X362250D01*
X344550D02*
X348250D01*
X339350D02*
X342750D01*
X327950D02*
X334750D01*
X318350D02*
X325150D01*
X364750Y264000D02*
X377450D01*
X350350D02*
X362250D01*
X344550D02*
X348250D01*
X339350D02*
X342650D01*
X327850D02*
X334750D01*
X318350D02*
X325150D01*
X364750Y263900D02*
X377450D01*
X350350D02*
X362250D01*
X344650D02*
X348250D01*
X339350D02*
X342650D01*
X327850D02*
X334750D01*
X318350D02*
X325150D01*
X364750Y263800D02*
X377450D01*
X350350D02*
X362250D01*
X344650D02*
X348250D01*
X339350D02*
X342650D01*
X327850D02*
X334750D01*
X318350D02*
X325150D01*
X364750Y263700D02*
X377450D01*
X350350D02*
X362250D01*
X344650D02*
X348250D01*
X339350D02*
X342650D01*
X327850D02*
X334750D01*
X318350D02*
X325250D01*
X364750Y263600D02*
X377450D01*
X358250D02*
X362250D01*
X350350D02*
X355450D01*
X344650D02*
X348250D01*
X339350D02*
X342650D01*
X327850D02*
X334750D01*
X318350D02*
X325250D01*
X364750Y263500D02*
X377450D01*
X358250D02*
X362250D01*
X350350D02*
X355050D01*
X344650D02*
X348250D01*
X339350D02*
X342650D01*
X327850D02*
X334750D01*
X318350D02*
X325250D01*
X364750Y263400D02*
X377450D01*
X358250D02*
X362250D01*
X350350D02*
X354850D01*
X344650D02*
X348250D01*
X339350D02*
X342650D01*
X327750D02*
X334750D01*
X318350D02*
X325250D01*
X364750Y263300D02*
X377450D01*
X358250D02*
X362250D01*
X350350D02*
X354750D01*
X344650D02*
X348150D01*
X339450D02*
X342650D01*
X330950D02*
X334750D01*
X327750D02*
X330850D01*
X318350D02*
X325250D01*
X364750Y263200D02*
X377450D01*
X358250D02*
X362250D01*
X350350D02*
X354650D01*
X344650D02*
X348150D01*
X339450D02*
X342650D01*
X330950D02*
X334750D01*
X327750D02*
X330850D01*
X322250D02*
X325250D01*
X318350D02*
X322150D01*
X364750Y263100D02*
X377450D01*
X358250D02*
X362250D01*
X350350D02*
X354550D01*
X344650D02*
X348150D01*
X339450D02*
X342650D01*
X330950D02*
X334750D01*
X327750D02*
X330850D01*
X322250D02*
X325350D01*
X318350D02*
X322150D01*
X364750Y263000D02*
X377450D01*
X358250D02*
X362250D01*
X350350D02*
X354550D01*
X344650D02*
X348150D01*
X339450D02*
X342650D01*
X330950D02*
X334750D01*
X327750D02*
X330850D01*
X322250D02*
X325350D01*
X318350D02*
X322150D01*
X364750Y262900D02*
X377450D01*
X358250D02*
X362250D01*
X350350D02*
X354450D01*
X344550D02*
X348150D01*
X339550D02*
X342750D01*
X330950D02*
X334750D01*
X327650D02*
X330850D01*
X322250D02*
X325350D01*
X318350D02*
X322150D01*
X358250Y262800D02*
X362250D01*
X350350D02*
X354450D01*
X344550D02*
X348050D01*
X339550D02*
X342750D01*
X330950D02*
X334750D01*
X327650D02*
X330750D01*
X322250D02*
X325350D01*
X318350D02*
X322150D01*
X358250Y262700D02*
X362250D01*
X350350D02*
X354450D01*
X344450D02*
X348050D01*
X339650D02*
X342850D01*
X330950D02*
X334750D01*
X327650D02*
X330750D01*
X322350D02*
X325350D01*
X318350D02*
X322150D01*
X358250Y262600D02*
X362250D01*
X350350D02*
X354450D01*
X344450D02*
X348050D01*
X339650D02*
X342850D01*
X330950D02*
X334750D01*
X327650D02*
X330750D01*
X322350D02*
X325450D01*
X318350D02*
X322150D01*
X358250Y262500D02*
X362250D01*
X350450D02*
X354450D01*
X344350D02*
X348050D01*
X339650D02*
X342950D01*
X330950D02*
X334750D01*
X327650D02*
X330750D01*
X322350D02*
X325450D01*
X318350D02*
X322150D01*
X358250Y262400D02*
X362250D01*
X350450D02*
X354450D01*
X344350D02*
X347950D01*
X339750D02*
X343050D01*
X330950D02*
X334750D01*
X327550D02*
X330750D01*
X322350D02*
X325450D01*
X318350D02*
X322150D01*
X358250Y262300D02*
X362250D01*
X350450D02*
X354450D01*
X344250D02*
X347950D01*
X339750D02*
X343150D01*
X330950D02*
X334750D01*
X327550D02*
X330650D01*
X322450D02*
X325450D01*
X318350D02*
X322150D01*
X358250Y262200D02*
X362250D01*
X350450D02*
X354450D01*
X344150D02*
X347950D01*
X339850D02*
X343250D01*
X330950D02*
X334750D01*
X327550D02*
X330650D01*
X322450D02*
X325450D01*
X318350D02*
X322150D01*
X358250Y262100D02*
X362250D01*
X350450D02*
X354450D01*
X344050D02*
X347850D01*
X339950D02*
X343350D01*
X330950D02*
X334750D01*
X327550D02*
X330650D01*
X322450D02*
X325550D01*
X318350D02*
X322150D01*
X364750Y262000D02*
X377450D01*
X358250D02*
X362250D01*
X350550D02*
X354450D01*
X344050D02*
X347850D01*
X339950D02*
X343450D01*
X330950D02*
X334750D01*
X327550D02*
X330650D01*
X322450D02*
X325550D01*
X318350D02*
X322150D01*
X364750Y261900D02*
X377450D01*
X358250D02*
X362250D01*
X350550D02*
X354450D01*
X343950D02*
X347750D01*
X340050D02*
X343550D01*
X337450D02*
X337550D01*
X330950D02*
X334750D01*
X327550D02*
X330550D01*
X322450D02*
X325550D01*
X318350D02*
X322150D01*
X364750Y261800D02*
X377450D01*
X358250D02*
X362250D01*
X350550D02*
X354450D01*
X343850D02*
X347750D01*
X340050D02*
X343650D01*
X337450D02*
X337650D01*
X330950D02*
X334750D01*
X327450D02*
X330550D01*
X322550D02*
X325550D01*
X318350D02*
X322150D01*
X364750Y261700D02*
X377450D01*
X358250D02*
X362250D01*
X350550D02*
X354450D01*
X340150D02*
X347650D01*
X337450D02*
X337650D01*
X330950D02*
X334750D01*
X327450D02*
X330550D01*
X322550D02*
X325550D01*
X318350D02*
X322150D01*
X364750Y261600D02*
X377450D01*
X358250D02*
X362250D01*
X350650D02*
X354550D01*
X340250D02*
X347650D01*
X337450D02*
X337650D01*
X330950D02*
X334750D01*
X327450D02*
X330550D01*
X322550D02*
X325650D01*
X318350D02*
X322150D01*
X364750Y261500D02*
X377450D01*
X358250D02*
X362250D01*
X350650D02*
X354550D01*
X340350D02*
X347550D01*
X337450D02*
X337750D01*
X330950D02*
X334750D01*
X327450D02*
X330550D01*
X322550D02*
X325650D01*
X318350D02*
X322150D01*
X364750Y261400D02*
X377450D01*
X358250D02*
X362250D01*
X350650D02*
X354550D01*
X340450D02*
X347450D01*
X337450D02*
X337750D01*
X330950D02*
X334750D01*
X327450D02*
X330450D01*
X322550D02*
X325650D01*
X318350D02*
X322150D01*
X364750Y261300D02*
X377450D01*
X358250D02*
X362250D01*
X350750D02*
X354650D01*
X340450D02*
X347450D01*
X337450D02*
X337850D01*
X330950D02*
X334750D01*
X327350D02*
X330450D01*
X322650D02*
X325650D01*
X318350D02*
X322150D01*
X364750Y261200D02*
X377450D01*
X358250D02*
X362250D01*
X350750D02*
X354750D01*
X340550D02*
X347350D01*
X337450D02*
X337850D01*
X330950D02*
X334750D01*
X327350D02*
X330450D01*
X322650D02*
X325650D01*
X318350D02*
X322150D01*
X364750Y261100D02*
X377450D01*
X358250D02*
X362250D01*
X350850D02*
X354850D01*
X340650D02*
X347250D01*
X337450D02*
X337950D01*
X330950D02*
X334750D01*
X327350D02*
X330450D01*
X322650D02*
X325750D01*
X318350D02*
X322150D01*
X364750Y261000D02*
X377450D01*
X358250D02*
X362250D01*
X350850D02*
X354950D01*
X340750D02*
X347250D01*
X337450D02*
X337950D01*
X330950D02*
X334750D01*
X327350D02*
X330450D01*
X322650D02*
X325750D01*
X318350D02*
X322150D01*
X364750Y260900D02*
X377450D01*
X358250D02*
X362250D01*
X350950D02*
X355050D01*
X340850D02*
X347150D01*
X337450D02*
X338050D01*
X330950D02*
X334750D01*
X327350D02*
X330350D01*
X322750D02*
X325750D01*
X318350D02*
X322150D01*
X364750Y260800D02*
X377450D01*
X358250D02*
X362250D01*
X350950D02*
X355250D01*
X340950D02*
X347050D01*
X337450D02*
X338050D01*
X330950D02*
X334750D01*
X327250D02*
X330350D01*
X322750D02*
X325750D01*
X318350D02*
X322150D01*
X364750Y260700D02*
X377450D01*
X358250D02*
X362250D01*
X351050D02*
X355550D01*
X341050D02*
X346950D01*
X337450D02*
X338150D01*
X330950D02*
X334750D01*
X327250D02*
X330350D01*
X322750D02*
X325750D01*
X318350D02*
X322150D01*
X364750Y260600D02*
X377450D01*
X351050D02*
X362250D01*
X341150D02*
X346850D01*
X337450D02*
X338150D01*
X330950D02*
X334750D01*
X327250D02*
X330350D01*
X322750D02*
X325850D01*
X318350D02*
X322150D01*
X364750Y260500D02*
X377450D01*
X351150D02*
X362250D01*
X341250D02*
X346750D01*
X337450D02*
X338250D01*
X330950D02*
X334750D01*
X327250D02*
X330250D01*
X322750D02*
X325850D01*
X318350D02*
X322150D01*
X364750Y260400D02*
X377450D01*
X351250D02*
X362250D01*
X341350D02*
X346650D01*
X337450D02*
X338250D01*
X330950D02*
X334750D01*
X327250D02*
X330250D01*
X322850D02*
X325850D01*
X318350D02*
X322150D01*
X364750Y260300D02*
X377450D01*
X351250D02*
X362250D01*
X341450D02*
X346650D01*
X337450D02*
X338350D01*
X330950D02*
X334750D01*
X327250D02*
X330250D01*
X322850D02*
X325850D01*
X318350D02*
X322150D01*
X364750Y260200D02*
X377450D01*
X351350D02*
X362250D01*
X341650D02*
X346550D01*
X337450D02*
X338350D01*
X330950D02*
X334750D01*
X327150D02*
X330250D01*
X322850D02*
X325850D01*
X318350D02*
X322150D01*
X364750Y260100D02*
X377450D01*
X351450D02*
X362250D01*
X341750D02*
X346450D01*
X337450D02*
X338450D01*
X330950D02*
X334750D01*
X327150D02*
X330250D01*
X322850D02*
X325950D01*
X318350D02*
X322150D01*
X364750Y260000D02*
X377450D01*
X351550D02*
X362250D01*
X341850D02*
X346450D01*
X337450D02*
X338450D01*
X330950D02*
X334750D01*
X327150D02*
X330150D01*
X322950D02*
X325950D01*
X318350D02*
X322150D01*
X364750Y259900D02*
X377450D01*
X351650D02*
X362250D01*
X341950D02*
X346650D01*
X337450D02*
X338550D01*
X330950D02*
X334750D01*
X327150D02*
X330150D01*
X322950D02*
X325950D01*
X318350D02*
X322150D01*
X364750Y259800D02*
X377450D01*
X351750D02*
X362250D01*
X341950D02*
X346750D01*
X337450D02*
X338550D01*
X330950D02*
X334750D01*
X327150D02*
X330150D01*
X322950D02*
X325950D01*
X318350D02*
X322150D01*
X364750Y259700D02*
X377450D01*
X351850D02*
X362250D01*
X341850D02*
X346950D01*
X337450D02*
X338650D01*
X330950D02*
X334750D01*
X327050D02*
X330150D01*
X322950D02*
X325950D01*
X318350D02*
X322150D01*
X364750Y259600D02*
X377450D01*
X351950D02*
X362250D01*
X341750D02*
X347050D01*
X337450D02*
X338750D01*
X330950D02*
X334750D01*
X327050D02*
X330050D01*
X322950D02*
X325950D01*
X318350D02*
X322150D01*
X364750Y259500D02*
X377450D01*
X352150D02*
X362250D01*
X341650D02*
X347150D01*
X337450D02*
X338750D01*
X330950D02*
X334750D01*
X327050D02*
X330050D01*
X323050D02*
X326050D01*
X318350D02*
X322150D01*
X364750Y259400D02*
X377450D01*
X352250D02*
X362250D01*
X341550D02*
X347250D01*
X337450D02*
X338850D01*
X330950D02*
X334750D01*
X327050D02*
X330050D01*
X323050D02*
X326050D01*
X318350D02*
X322150D01*
X364750Y259300D02*
X377450D01*
X352450D02*
X362250D01*
X341450D02*
X347450D01*
X337450D02*
X338850D01*
X330950D02*
X334750D01*
X327050D02*
X330050D01*
X323050D02*
X326050D01*
X318350D02*
X322150D01*
X364750Y259200D02*
X377450D01*
X352650D02*
X362250D01*
X341450D02*
X347550D01*
X337450D02*
X338950D01*
X330950D02*
X334750D01*
X326950D02*
X330050D01*
X323050D02*
X326050D01*
X318350D02*
X322150D01*
X364750Y259100D02*
X377450D01*
X352850D02*
X362250D01*
X341350D02*
X347650D01*
X337450D02*
X339050D01*
X330950D02*
X334750D01*
X326950D02*
X329950D01*
X323050D02*
X326050D01*
X318350D02*
X322150D01*
X364750Y259000D02*
X377450D01*
X353150D02*
X362250D01*
X341250D02*
X347750D01*
X337450D02*
X339050D01*
X330950D02*
X334750D01*
X326950D02*
X329950D01*
X323150D02*
X326150D01*
X318350D02*
X322150D01*
X364750Y258900D02*
X377450D01*
X353550D02*
X362250D01*
X341150D02*
X347850D01*
X337450D02*
X339150D01*
X330950D02*
X334750D01*
X326950D02*
X329950D01*
X323150D02*
X326150D01*
X318350D02*
X322150D01*
X364750Y258800D02*
X377450D01*
X354350D02*
X362250D01*
X341050D02*
X347950D01*
X337450D02*
X339150D01*
X330950D02*
X334750D01*
X326950D02*
X329950D01*
X323150D02*
X326150D01*
X318350D02*
X322150D01*
X364750Y258700D02*
X377450D01*
X354350D02*
X362250D01*
X340950D02*
X348050D01*
X337450D02*
X339250D01*
X330950D02*
X334750D01*
X326950D02*
X329950D01*
X323150D02*
X326150D01*
X318350D02*
X322150D01*
X364750Y258600D02*
X377450D01*
X354250D02*
X362250D01*
X340950D02*
X348150D01*
X337450D02*
X339350D01*
X330950D02*
X334750D01*
X326850D02*
X329850D01*
X323250D02*
X326150D01*
X318350D02*
X322150D01*
X364750Y258500D02*
X377450D01*
X354150D02*
X362250D01*
X340850D02*
X348250D01*
X337450D02*
X339350D01*
X330950D02*
X334750D01*
X326850D02*
X329850D01*
X323250D02*
X326250D01*
X318350D02*
X322150D01*
X364750Y258400D02*
X377450D01*
X354150D02*
X362250D01*
X340750D02*
X348350D01*
X337450D02*
X339450D01*
X330950D02*
X334750D01*
X326850D02*
X329850D01*
X323250D02*
X326250D01*
X318350D02*
X322150D01*
X364750Y258300D02*
X377450D01*
X354050D02*
X362250D01*
X340650D02*
X348450D01*
X337450D02*
X339550D01*
X330950D02*
X334750D01*
X326850D02*
X329850D01*
X323250D02*
X326250D01*
X318350D02*
X322150D01*
X364750Y258200D02*
X377450D01*
X353950D02*
X362250D01*
X340550D02*
X348550D01*
X337450D02*
X339550D01*
X330950D02*
X334750D01*
X326850D02*
X329750D01*
X323250D02*
X326250D01*
X318350D02*
X322150D01*
X364750Y258100D02*
X377450D01*
X358250D02*
X362250D01*
X353950D02*
X358150D01*
X340550D02*
X348550D01*
X337450D02*
X339650D01*
X330950D02*
X334750D01*
X326750D02*
X329750D01*
X323350D02*
X326250D01*
X318350D02*
X322150D01*
X364750Y258000D02*
X377450D01*
X358250D02*
X362250D01*
X353850D02*
X358150D01*
X340450D02*
X348650D01*
X337450D02*
X339750D01*
X330950D02*
X334750D01*
X326750D02*
X329750D01*
X323350D02*
X326350D01*
X318350D02*
X322150D01*
X364750Y257900D02*
X377450D01*
X358250D02*
X362250D01*
X353750D02*
X358050D01*
X344850D02*
X348750D01*
X340350D02*
X344650D01*
X337450D02*
X339750D01*
X330950D02*
X334750D01*
X326750D02*
X329750D01*
X323350D02*
X326350D01*
X318350D02*
X322150D01*
X364750Y257800D02*
X377450D01*
X358250D02*
X362250D01*
X353750D02*
X358050D01*
X344950D02*
X348850D01*
X340250D02*
X344550D01*
X337450D02*
X339850D01*
X330950D02*
X334750D01*
X326750D02*
X329750D01*
X323350D02*
X326350D01*
X318350D02*
X322150D01*
X364750Y257700D02*
X377450D01*
X358250D02*
X362250D01*
X353650D02*
X357950D01*
X345050D02*
X348850D01*
X340150D02*
X344450D01*
X337450D02*
X339950D01*
X330950D02*
X334750D01*
X326750D02*
X329650D01*
X323350D02*
X326350D01*
X318350D02*
X322150D01*
X364750Y257600D02*
X377450D01*
X358250D02*
X362250D01*
X353550D02*
X357850D01*
X345150D02*
X348950D01*
X337450D02*
X344350D01*
X330950D02*
X334750D01*
X326650D02*
X329650D01*
X323450D02*
X326350D01*
X318350D02*
X322150D01*
X358250Y257500D02*
X362250D01*
X353550D02*
X357850D01*
X345250D02*
X348950D01*
X337450D02*
X344250D01*
X330950D02*
X334750D01*
X326650D02*
X329650D01*
X323450D02*
X326450D01*
X318350D02*
X322150D01*
X358250Y257400D02*
X362250D01*
X353450D02*
X357750D01*
X345350D02*
X349050D01*
X337450D02*
X344250D01*
X330950D02*
X334750D01*
X326650D02*
X329650D01*
X323450D02*
X326450D01*
X318350D02*
X322150D01*
X358250Y257300D02*
X362250D01*
X353350D02*
X357750D01*
X345450D02*
X349050D01*
X337450D02*
X344150D01*
X330950D02*
X334750D01*
X326650D02*
X329650D01*
X323450D02*
X326450D01*
X318350D02*
X322150D01*
X358250Y257200D02*
X362250D01*
X353350D02*
X357650D01*
X345550D02*
X349150D01*
X337450D02*
X344050D01*
X330950D02*
X334750D01*
X326650D02*
X329550D01*
X323550D02*
X326450D01*
X318350D02*
X322150D01*
X358250Y257100D02*
X362250D01*
X353250D02*
X357650D01*
X345550D02*
X349150D01*
X337550D02*
X343950D01*
X330950D02*
X334750D01*
X326650D02*
X329550D01*
X323550D02*
X326450D01*
X318350D02*
X322150D01*
X358250Y257000D02*
X362250D01*
X353150D02*
X357550D01*
X345650D02*
X349250D01*
X337550D02*
X343850D01*
X330950D02*
X334750D01*
X323550D02*
X329550D01*
X318350D02*
X322150D01*
X358250Y256900D02*
X362250D01*
X353150D02*
X357450D01*
X345750D02*
X349250D01*
X337650D02*
X343750D01*
X330950D02*
X334750D01*
X323550D02*
X329550D01*
X318350D02*
X322150D01*
X358250Y256800D02*
X362250D01*
X353050D02*
X357450D01*
X345750D02*
X349250D01*
X337750D02*
X343750D01*
X330950D02*
X334750D01*
X323550D02*
X329450D01*
X318350D02*
X322150D01*
X364750Y256700D02*
X377450D01*
X358250D02*
X362250D01*
X352950D02*
X357350D01*
X345750D02*
X349350D01*
X337750D02*
X343650D01*
X330950D02*
X334750D01*
X323650D02*
X329450D01*
X318350D02*
X322150D01*
X364750Y256600D02*
X377450D01*
X358250D02*
X362250D01*
X352950D02*
X357350D01*
X345850D02*
X349350D01*
X337850D02*
X343550D01*
X330950D02*
X334750D01*
X323650D02*
X329450D01*
X318350D02*
X322150D01*
X364750Y256500D02*
X377450D01*
X358250D02*
X362250D01*
X352850D02*
X357250D01*
X345850D02*
X349350D01*
X337850D02*
X343450D01*
X330950D02*
X334750D01*
X323650D02*
X329450D01*
X318350D02*
X322150D01*
X364750Y256400D02*
X377450D01*
X358250D02*
X362250D01*
X352750D02*
X357250D01*
X345850D02*
X349350D01*
X337950D02*
X343350D01*
X330950D02*
X334750D01*
X323650D02*
X329450D01*
X318350D02*
X322150D01*
X364750Y256300D02*
X377450D01*
X358250D02*
X362250D01*
X352750D02*
X357150D01*
X345850D02*
X349450D01*
X338050D02*
X343350D01*
X330950D02*
X334750D01*
X323750D02*
X329350D01*
X318350D02*
X322150D01*
X364750Y256200D02*
X377450D01*
X358250D02*
X362250D01*
X352650D02*
X357150D01*
X345850D02*
X349450D01*
X338050D02*
X343250D01*
X330950D02*
X334750D01*
X323750D02*
X329350D01*
X318350D02*
X322150D01*
X364750Y256100D02*
X377450D01*
X358250D02*
X362250D01*
X352550D02*
X357050D01*
X345850D02*
X349450D01*
X338150D02*
X343150D01*
X330950D02*
X334750D01*
X323750D02*
X329350D01*
X318350D02*
X322150D01*
X364750Y256000D02*
X377450D01*
X358250D02*
X362250D01*
X352550D02*
X356950D01*
X345850D02*
X349450D01*
X338250D02*
X343050D01*
X330950D02*
X334750D01*
X323750D02*
X329350D01*
X318350D02*
X322150D01*
X364750Y255900D02*
X377450D01*
X358250D02*
X362250D01*
X352450D02*
X356950D01*
X345850D02*
X349450D01*
X338250D02*
X342950D01*
X330950D02*
X334750D01*
X323750D02*
X329250D01*
X318350D02*
X322150D01*
X364750Y255800D02*
X377450D01*
X358250D02*
X362250D01*
X352350D02*
X356850D01*
X345750D02*
X349450D01*
X338350D02*
X342850D01*
X330950D02*
X334750D01*
X323850D02*
X329250D01*
X318350D02*
X322150D01*
X364750Y255700D02*
X377450D01*
X358250D02*
X362250D01*
X352350D02*
X356850D01*
X345750D02*
X349550D01*
X338450D02*
X342850D01*
X330950D02*
X334750D01*
X323850D02*
X329250D01*
X318350D02*
X322150D01*
X364750Y255600D02*
X377450D01*
X358250D02*
X362250D01*
X352250D02*
X356750D01*
X345750D02*
X349550D01*
X338450D02*
X342750D01*
X330950D02*
X334750D01*
X323850D02*
X329250D01*
X318350D02*
X322150D01*
X364750Y255500D02*
X377450D01*
X358250D02*
X362250D01*
X352150D02*
X356750D01*
X345650D02*
X349450D01*
X338450D02*
X342650D01*
X330950D02*
X334750D01*
X323850D02*
X329250D01*
X318350D02*
X322150D01*
X364750Y255400D02*
X377450D01*
X358250D02*
X362250D01*
X352150D02*
X356650D01*
X345650D02*
X349450D01*
X338350D02*
X342550D01*
X330950D02*
X334750D01*
X323850D02*
X329150D01*
X318350D02*
X322150D01*
X364750Y255300D02*
X377450D01*
X358250D02*
X362250D01*
X352050D02*
X356550D01*
X345550D02*
X349450D01*
X338350D02*
X342550D01*
X330950D02*
X334750D01*
X323950D02*
X329150D01*
X318350D02*
X322150D01*
X364750Y255200D02*
X377450D01*
X358250D02*
X362250D01*
X351950D02*
X356550D01*
X345450D02*
X349450D01*
X338250D02*
X342650D01*
X330950D02*
X334750D01*
X323950D02*
X329150D01*
X318350D02*
X322150D01*
X364750Y255100D02*
X377450D01*
X358250D02*
X362250D01*
X351950D02*
X356450D01*
X345350D02*
X349450D01*
X338150D02*
X342850D01*
X330950D02*
X334750D01*
X323950D02*
X329150D01*
X318350D02*
X322150D01*
X364750Y255000D02*
X377450D01*
X358250D02*
X362250D01*
X351850D02*
X356450D01*
X345250D02*
X349450D01*
X338050D02*
X342950D01*
X330950D02*
X334750D01*
X323950D02*
X329150D01*
X318350D02*
X322150D01*
X364750Y254900D02*
X377450D01*
X358250D02*
X362250D01*
X351750D02*
X356350D01*
X345050D02*
X349450D01*
X338050D02*
X343150D01*
X330950D02*
X334750D01*
X324050D02*
X329050D01*
X318350D02*
X322150D01*
X364750Y254800D02*
X377450D01*
X358250D02*
X362250D01*
X351750D02*
X356350D01*
X344950D02*
X349350D01*
X337950D02*
X343350D01*
X330950D02*
X334750D01*
X324050D02*
X329050D01*
X318350D02*
X322150D01*
X364750Y254700D02*
X377450D01*
X358250D02*
X362250D01*
X351650D02*
X356250D01*
X344650D02*
X349350D01*
X337850D02*
X343650D01*
X330950D02*
X334750D01*
X324050D02*
X329050D01*
X318350D02*
X322150D01*
X364750Y254600D02*
X377450D01*
X358250D02*
X362250D01*
X351550D02*
X356150D01*
X337750D02*
X349350D01*
X330950D02*
X334750D01*
X324050D02*
X329050D01*
X318350D02*
X322150D01*
X364750Y254500D02*
X377450D01*
X358250D02*
X362250D01*
X351550D02*
X356150D01*
X337650D02*
X349350D01*
X330950D02*
X334750D01*
X324050D02*
X328950D01*
X318350D02*
X322150D01*
X364750Y254400D02*
X377450D01*
X358250D02*
X362250D01*
X351450D02*
X356050D01*
X337650D02*
X349250D01*
X330950D02*
X334750D01*
X324150D02*
X328950D01*
X318350D02*
X322150D01*
X364750Y254300D02*
X377450D01*
X358250D02*
X362250D01*
X351350D02*
X356050D01*
X337550D02*
X349250D01*
X330950D02*
X334750D01*
X324150D02*
X328950D01*
X318350D02*
X322150D01*
X364750Y254200D02*
X377450D01*
X358250D02*
X362250D01*
X351350D02*
X355950D01*
X337450D02*
X349150D01*
X330950D02*
X334750D01*
X324150D02*
X328950D01*
X318350D02*
X322150D01*
X364750Y254100D02*
X377450D01*
X358250D02*
X362250D01*
X351250D02*
X355950D01*
X337350D02*
X349150D01*
X330950D02*
X334750D01*
X324150D02*
X328950D01*
X318350D02*
X322150D01*
X364750Y254000D02*
X377450D01*
X358250D02*
X362250D01*
X351150D02*
X355850D01*
X337350D02*
X349050D01*
X330950D02*
X334750D01*
X324150D02*
X328850D01*
X318350D02*
X322150D01*
X364750Y253900D02*
X377450D01*
X358250D02*
X362250D01*
X351150D02*
X355750D01*
X337250D02*
X349050D01*
X330950D02*
X334750D01*
X324250D02*
X328850D01*
X318350D02*
X322150D01*
X364750Y253800D02*
X377450D01*
X358250D02*
X362250D01*
X351050D02*
X355750D01*
X337150D02*
X348950D01*
X330950D02*
X334750D01*
X324250D02*
X328850D01*
X318350D02*
X322150D01*
X364750Y253700D02*
X377450D01*
X358250D02*
X362250D01*
X350950D02*
X355650D01*
X337050D02*
X348850D01*
X330950D02*
X334750D01*
X324250D02*
X328850D01*
X318350D02*
X322150D01*
X364750Y253600D02*
X377450D01*
X358250D02*
X362250D01*
X350950D02*
X355650D01*
X337050D02*
X348850D01*
X330950D02*
X334750D01*
X324250D02*
X328850D01*
X318350D02*
X322150D01*
X364750Y253500D02*
X377450D01*
X358250D02*
X362250D01*
X350850D02*
X355550D01*
X336950D02*
X348750D01*
X330950D02*
X334750D01*
X324350D02*
X328750D01*
X318350D02*
X322150D01*
X364750Y253400D02*
X377450D01*
X358250D02*
X362250D01*
X350750D02*
X355550D01*
X340850D02*
X348650D01*
X336850D02*
X340750D01*
X330950D02*
X334750D01*
X324350D02*
X328750D01*
X318350D02*
X322150D01*
X364750Y253300D02*
X377450D01*
X358250D02*
X362250D01*
X350750D02*
X355450D01*
X340950D02*
X348550D01*
X336750D02*
X340650D01*
X330950D02*
X334750D01*
X324350D02*
X328750D01*
X318350D02*
X322150D01*
X364750Y253200D02*
X377450D01*
X358250D02*
X362250D01*
X350650D02*
X355350D01*
X341050D02*
X348450D01*
X336650D02*
X340550D01*
X330950D02*
X334750D01*
X324350D02*
X328750D01*
X318350D02*
X322150D01*
X364750Y253100D02*
X377450D01*
X358250D02*
X362250D01*
X350550D02*
X355350D01*
X341150D02*
X348350D01*
X336650D02*
X340550D01*
X330950D02*
X334750D01*
X324350D02*
X328650D01*
X318350D02*
X322150D01*
X364750Y253000D02*
X377450D01*
X358250D02*
X362250D01*
X350550D02*
X355250D01*
X341250D02*
X348250D01*
X336550D02*
X340450D01*
X330950D02*
X334750D01*
X324450D02*
X328650D01*
X318350D02*
X322150D01*
X364750Y252900D02*
X377450D01*
X358250D02*
X362250D01*
X350450D02*
X355250D01*
X341450D02*
X348150D01*
X336450D02*
X340350D01*
X330950D02*
X334750D01*
X324450D02*
X328650D01*
X318350D02*
X322150D01*
X364750Y252800D02*
X377450D01*
X358250D02*
X362250D01*
X350350D02*
X355150D01*
X341550D02*
X347950D01*
X336350D02*
X340250D01*
X330950D02*
X334750D01*
X324450D02*
X328650D01*
X318350D02*
X322150D01*
X364750Y252700D02*
X377450D01*
X358250D02*
X362250D01*
X350350D02*
X355150D01*
X341750D02*
X347850D01*
X336350D02*
X340250D01*
X330950D02*
X334750D01*
X324450D02*
X328650D01*
X318350D02*
X322150D01*
X364750Y252600D02*
X377450D01*
X358250D02*
X362250D01*
X350250D02*
X355050D01*
X341850D02*
X347650D01*
X336250D02*
X340150D01*
X330950D02*
X334750D01*
X324550D02*
X328550D01*
X318350D02*
X322150D01*
X364750Y252500D02*
X377450D01*
X358250D02*
X362250D01*
X350150D02*
X354950D01*
X342050D02*
X347550D01*
X336150D02*
X340050D01*
X330950D02*
X334750D01*
X324550D02*
X328550D01*
X318350D02*
X322150D01*
X364750Y252400D02*
X377450D01*
X358250D02*
X362250D01*
X350150D02*
X354950D01*
X342250D02*
X347350D01*
X336050D02*
X339950D01*
X330950D02*
X334750D01*
X324550D02*
X328550D01*
X318350D02*
X322150D01*
X364750Y252300D02*
X377450D01*
X358250D02*
X362250D01*
X350050D02*
X354850D01*
X342450D02*
X347150D01*
X335950D02*
X339950D01*
X330950D02*
X334750D01*
X324550D02*
X328550D01*
X318350D02*
X322150D01*
X364750Y252200D02*
X377450D01*
X358250D02*
X362250D01*
X349950D02*
X354850D01*
X342750D02*
X346850D01*
X335950D02*
X339850D01*
X330950D02*
X334750D01*
X324550D02*
X328450D01*
X318350D02*
X322150D01*
X358250Y252100D02*
X362250D01*
X349950D02*
X354750D01*
X343050D02*
X346550D01*
X335850D02*
X339750D01*
X331050D02*
X334750D01*
X324650D02*
X328450D01*
X318350D02*
X322050D01*
X343450Y252000D02*
X346250D01*
X343950Y251900D02*
X345850D01*
M02*
