G04*
G04 #@! TF.GenerationSoftware,Altium Limited,Altium Designer,19.1.8 (144)*
G04*
G04 Layer_Color=255*
%FSLAX25Y25*%
%MOIN*%
G70*
G01*
G75*
%ADD35R,0.19095X0.19095*%
G04:AMPARAMS|DCode=37|XSize=11.81mil|YSize=33.47mil|CornerRadius=2.95mil|HoleSize=0mil|Usage=FLASHONLY|Rotation=90.000|XOffset=0mil|YOffset=0mil|HoleType=Round|Shape=RoundedRectangle|*
%AMROUNDEDRECTD37*
21,1,0.01181,0.02756,0,0,90.0*
21,1,0.00591,0.03347,0,0,90.0*
1,1,0.00591,0.01378,0.00295*
1,1,0.00591,0.01378,-0.00295*
1,1,0.00591,-0.01378,-0.00295*
1,1,0.00591,-0.01378,0.00295*
%
%ADD37ROUNDEDRECTD37*%
G04:AMPARAMS|DCode=38|XSize=11.81mil|YSize=33.47mil|CornerRadius=2.95mil|HoleSize=0mil|Usage=FLASHONLY|Rotation=180.000|XOffset=0mil|YOffset=0mil|HoleType=Round|Shape=RoundedRectangle|*
%AMROUNDEDRECTD38*
21,1,0.01181,0.02756,0,0,180.0*
21,1,0.00591,0.03347,0,0,180.0*
1,1,0.00591,-0.00295,0.01378*
1,1,0.00591,0.00295,0.01378*
1,1,0.00591,0.00295,-0.01378*
1,1,0.00591,-0.00295,-0.01378*
%
%ADD38ROUNDEDRECTD38*%
%ADD39R,0.04724X0.02362*%
%ADD40R,0.02362X0.04724*%
%ADD41C,0.01378*%
%ADD42R,0.03937X0.03937*%
%ADD43R,0.01100X0.05800*%
%ADD44R,0.05800X0.01100*%
%ADD45R,0.02900X0.11000*%
%ADD46R,0.03347X0.03347*%
%ADD47R,0.05020X0.05020*%
%ADD48R,0.05315X0.02756*%
%ADD49R,0.04724X0.01575*%
%ADD50R,0.05020X0.05118*%
%ADD51R,0.05256X0.04528*%
%ADD52R,0.05256X0.04921*%
%ADD53R,0.02362X0.01575*%
G04:AMPARAMS|DCode=54|XSize=19.68mil|YSize=23.62mil|CornerRadius=1.97mil|HoleSize=0mil|Usage=FLASHONLY|Rotation=270.000|XOffset=0mil|YOffset=0mil|HoleType=Round|Shape=RoundedRectangle|*
%AMROUNDEDRECTD54*
21,1,0.01968,0.01968,0,0,270.0*
21,1,0.01575,0.02362,0,0,270.0*
1,1,0.00394,-0.00984,-0.00787*
1,1,0.00394,-0.00984,0.00787*
1,1,0.00394,0.00984,0.00787*
1,1,0.00394,0.00984,-0.00787*
%
%ADD54ROUNDEDRECTD54*%
%ADD55R,0.01024X0.03386*%
%ADD56R,0.04409X0.11339*%
G04:AMPARAMS|DCode=57|XSize=51.18mil|YSize=31.5mil|CornerRadius=3.94mil|HoleSize=0mil|Usage=FLASHONLY|Rotation=90.000|XOffset=0mil|YOffset=0mil|HoleType=Round|Shape=RoundedRectangle|*
%AMROUNDEDRECTD57*
21,1,0.05118,0.02362,0,0,90.0*
21,1,0.04331,0.03150,0,0,90.0*
1,1,0.00787,0.01181,0.02165*
1,1,0.00787,0.01181,-0.02165*
1,1,0.00787,-0.01181,-0.02165*
1,1,0.00787,-0.01181,0.02165*
%
%ADD57ROUNDEDRECTD57*%
%ADD58C,0.00866*%
G04:AMPARAMS|DCode=59|XSize=70.87mil|YSize=45.28mil|CornerRadius=5.66mil|HoleSize=0mil|Usage=FLASHONLY|Rotation=180.000|XOffset=0mil|YOffset=0mil|HoleType=Round|Shape=RoundedRectangle|*
%AMROUNDEDRECTD59*
21,1,0.07087,0.03396,0,0,180.0*
21,1,0.05955,0.04528,0,0,180.0*
1,1,0.01132,-0.02977,0.01698*
1,1,0.01132,0.02977,0.01698*
1,1,0.01132,0.02977,-0.01698*
1,1,0.01132,-0.02977,-0.01698*
%
%ADD59ROUNDEDRECTD59*%
%ADD60R,0.16693X0.15000*%
%ADD61R,0.11457X0.02165*%
%ADD62R,0.01968X0.03937*%
%ADD63R,0.03071X0.02835*%
%ADD64R,0.04134X0.04724*%
%ADD65R,0.04134X0.04331*%
%ADD66R,0.04134X0.04134*%
%ADD67R,0.04134X0.09409*%
%ADD68R,0.07874X0.07874*%
%ADD69R,0.03937X0.04331*%
G04:AMPARAMS|DCode=70|XSize=19.68mil|YSize=23.62mil|CornerRadius=1.97mil|HoleSize=0mil|Usage=FLASHONLY|Rotation=0.000|XOffset=0mil|YOffset=0mil|HoleType=Round|Shape=RoundedRectangle|*
%AMROUNDEDRECTD70*
21,1,0.01968,0.01968,0,0,0.0*
21,1,0.01575,0.02362,0,0,0.0*
1,1,0.00394,0.00787,-0.00984*
1,1,0.00394,-0.00787,-0.00984*
1,1,0.00394,-0.00787,0.00984*
1,1,0.00394,0.00787,0.00984*
%
%ADD70ROUNDEDRECTD70*%
%ADD71R,0.02362X0.04331*%
%ADD72R,0.22835X0.24410*%
%ADD73R,0.06299X0.11811*%
%ADD74R,0.03150X0.05512*%
%ADD75R,0.04724X0.08346*%
%ADD76R,0.04724X0.09449*%
%ADD77R,0.10236X0.32284*%
%ADD78R,0.11811X0.06299*%
%ADD79R,0.25591X0.21654*%
%ADD80R,0.03543X0.03150*%
%ADD81R,0.02362X0.01654*%
%ADD82R,0.09449X0.05512*%
%ADD83R,0.02362X0.04331*%
%ADD84R,0.03386X0.01024*%
%ADD85R,0.12992X0.12992*%
%ADD86R,0.08465X0.03740*%
%ADD87R,0.08465X0.12795*%
%ADD88R,0.07087X0.03937*%
%ADD89R,0.03937X0.07087*%
%ADD90R,0.04724X0.03937*%
%ADD91R,0.02165X0.02165*%
%ADD92R,0.15748X0.09843*%
%ADD93R,0.09449X0.07480*%
G04:AMPARAMS|DCode=94|XSize=51.18mil|YSize=31.5mil|CornerRadius=3.94mil|HoleSize=0mil|Usage=FLASHONLY|Rotation=180.000|XOffset=0mil|YOffset=0mil|HoleType=Round|Shape=RoundedRectangle|*
%AMROUNDEDRECTD94*
21,1,0.05118,0.02362,0,0,180.0*
21,1,0.04331,0.03150,0,0,180.0*
1,1,0.00787,-0.02165,0.01181*
1,1,0.00787,0.02165,0.01181*
1,1,0.00787,0.02165,-0.01181*
1,1,0.00787,-0.02165,-0.01181*
%
%ADD94ROUNDEDRECTD94*%
G04:AMPARAMS|DCode=95|XSize=55.12mil|YSize=39.37mil|CornerRadius=4.92mil|HoleSize=0mil|Usage=FLASHONLY|Rotation=180.000|XOffset=0mil|YOffset=0mil|HoleType=Round|Shape=RoundedRectangle|*
%AMROUNDEDRECTD95*
21,1,0.05512,0.02953,0,0,180.0*
21,1,0.04528,0.03937,0,0,180.0*
1,1,0.00984,-0.02264,0.01476*
1,1,0.00984,0.02264,0.01476*
1,1,0.00984,0.02264,-0.01476*
1,1,0.00984,-0.02264,-0.01476*
%
%ADD95ROUNDEDRECTD95*%
%ADD96R,0.04134X0.03937*%
%ADD97R,0.02953X0.02362*%
%ADD98R,0.10906X0.02559*%
%ADD99R,0.11000X0.02900*%
%ADD100R,0.22992X0.15512*%
%ADD101R,0.04331X0.05118*%
%ADD102R,0.03150X0.03543*%
G04:AMPARAMS|DCode=103|XSize=39.37mil|YSize=35.43mil|CornerRadius=4.43mil|HoleSize=0mil|Usage=FLASHONLY|Rotation=90.000|XOffset=0mil|YOffset=0mil|HoleType=Round|Shape=RoundedRectangle|*
%AMROUNDEDRECTD103*
21,1,0.03937,0.02657,0,0,90.0*
21,1,0.03051,0.03543,0,0,90.0*
1,1,0.00886,0.01329,0.01526*
1,1,0.00886,0.01329,-0.01526*
1,1,0.00886,-0.01329,-0.01526*
1,1,0.00886,-0.01329,0.01526*
%
%ADD103ROUNDEDRECTD103*%
G04:AMPARAMS|DCode=104|XSize=39.37mil|YSize=35.43mil|CornerRadius=4.43mil|HoleSize=0mil|Usage=FLASHONLY|Rotation=0.000|XOffset=0mil|YOffset=0mil|HoleType=Round|Shape=RoundedRectangle|*
%AMROUNDEDRECTD104*
21,1,0.03937,0.02657,0,0,0.0*
21,1,0.03051,0.03543,0,0,0.0*
1,1,0.00886,0.01526,-0.01329*
1,1,0.00886,-0.01526,-0.01329*
1,1,0.00886,-0.01526,0.01329*
1,1,0.00886,0.01526,0.01329*
%
%ADD104ROUNDEDRECTD104*%
%ADD105R,0.01968X0.02756*%
%ADD106R,0.00800X0.00800*%
G04:AMPARAMS|DCode=107|XSize=23.62mil|YSize=23.62mil|CornerRadius=2.36mil|HoleSize=0mil|Usage=FLASHONLY|Rotation=0.000|XOffset=0mil|YOffset=0mil|HoleType=Round|Shape=RoundedRectangle|*
%AMROUNDEDRECTD107*
21,1,0.02362,0.01890,0,0,0.0*
21,1,0.01890,0.02362,0,0,0.0*
1,1,0.00472,0.00945,-0.00945*
1,1,0.00472,-0.00945,-0.00945*
1,1,0.00472,-0.00945,0.00945*
1,1,0.00472,0.00945,0.00945*
%
%ADD107ROUNDEDRECTD107*%
%ADD108R,0.04921X0.03858*%
%ADD109R,0.09055X0.09055*%
%ADD110R,0.07874X0.03937*%
G04:AMPARAMS|DCode=111|XSize=70.87mil|YSize=45.28mil|CornerRadius=5.66mil|HoleSize=0mil|Usage=FLASHONLY|Rotation=270.000|XOffset=0mil|YOffset=0mil|HoleType=Round|Shape=RoundedRectangle|*
%AMROUNDEDRECTD111*
21,1,0.07087,0.03396,0,0,270.0*
21,1,0.05955,0.04528,0,0,270.0*
1,1,0.01132,-0.01698,-0.02977*
1,1,0.01132,-0.01698,0.02977*
1,1,0.01132,0.01698,0.02977*
1,1,0.01132,0.01698,-0.02977*
%
%ADD111ROUNDEDRECTD111*%
G04:AMPARAMS|DCode=112|XSize=23.62mil|YSize=23.62mil|CornerRadius=2.36mil|HoleSize=0mil|Usage=FLASHONLY|Rotation=90.000|XOffset=0mil|YOffset=0mil|HoleType=Round|Shape=RoundedRectangle|*
%AMROUNDEDRECTD112*
21,1,0.02362,0.01890,0,0,90.0*
21,1,0.01890,0.02362,0,0,90.0*
1,1,0.00472,0.00945,0.00945*
1,1,0.00472,0.00945,-0.00945*
1,1,0.00472,-0.00945,-0.00945*
1,1,0.00472,-0.00945,0.00945*
%
%ADD112ROUNDEDRECTD112*%
%ADD113C,0.03100*%
%ADD114R,0.01181X0.02756*%
%ADD115R,0.01181X0.03937*%
%ADD116R,0.06102X0.02362*%
G04:AMPARAMS|DCode=117|XSize=106.3mil|YSize=45.28mil|CornerRadius=5.66mil|HoleSize=0mil|Usage=FLASHONLY|Rotation=270.000|XOffset=0mil|YOffset=0mil|HoleType=Round|Shape=RoundedRectangle|*
%AMROUNDEDRECTD117*
21,1,0.10630,0.03396,0,0,270.0*
21,1,0.09498,0.04528,0,0,270.0*
1,1,0.01132,-0.01698,-0.04749*
1,1,0.01132,-0.01698,0.04749*
1,1,0.01132,0.01698,0.04749*
1,1,0.01132,0.01698,-0.04749*
%
%ADD117ROUNDEDRECTD117*%
%ADD118R,0.10630X0.06299*%
%ADD119R,0.07402X0.06181*%
%ADD121R,0.02756X0.06102*%
%ADD200C,0.03900*%
%ADD223C,0.01083*%
%ADD224R,0.10236X0.10236*%
%ADD225R,0.01181X0.06299*%
%ADD240C,0.17717*%
%ADD241C,0.05984*%
%ADD242C,0.09449*%
%ADD243C,0.12795*%
%ADD244C,0.05512*%
%ADD245C,0.03937*%
%ADD246C,0.09055*%
%ADD247C,0.09350*%
%ADD248O,0.05937X0.11874*%
%ADD249O,0.11874X0.05937*%
D35*
X435000Y283000D02*
D03*
D37*
X145323Y112953D02*
D03*
Y110984D02*
D03*
Y105079D02*
D03*
Y107047D02*
D03*
Y109016D02*
D03*
Y114921D02*
D03*
X160677D02*
D03*
Y112953D02*
D03*
Y110984D02*
D03*
Y109016D02*
D03*
Y107047D02*
D03*
Y105079D02*
D03*
D38*
X148079Y117677D02*
D03*
X150047D02*
D03*
X152016D02*
D03*
X153984D02*
D03*
X155953D02*
D03*
X157921D02*
D03*
Y102323D02*
D03*
X155953D02*
D03*
X153984D02*
D03*
X152016D02*
D03*
X150047D02*
D03*
X148079D02*
D03*
D39*
X251528Y284864D02*
D03*
X242472Y292344D02*
D03*
Y284864D02*
D03*
X251528Y292344D02*
D03*
Y288604D02*
D03*
D40*
X338804Y31672D02*
D03*
X342544D02*
D03*
X335064Y40728D02*
D03*
X342544D02*
D03*
X335064Y31672D02*
D03*
D41*
X345067Y244063D02*
D03*
X349004D02*
D03*
X352941D02*
D03*
X345067Y248000D02*
D03*
X349000D02*
D03*
X352941D02*
D03*
X345067Y251937D02*
D03*
X349004D02*
D03*
X352941D02*
D03*
D42*
X257000Y310456D02*
D03*
X253260Y301007D02*
D03*
X260740D02*
D03*
X483213Y286500D02*
D03*
D43*
X247803Y187950D02*
D03*
X249772D02*
D03*
X251740D02*
D03*
X253709D02*
D03*
X255677D02*
D03*
X257646D02*
D03*
X259614D02*
D03*
X261583D02*
D03*
X263551D02*
D03*
X265520D02*
D03*
X267488D02*
D03*
X269457D02*
D03*
X271425D02*
D03*
X273394D02*
D03*
X275362D02*
D03*
X277331D02*
D03*
X279299D02*
D03*
X281268D02*
D03*
X283236D02*
D03*
X285205D02*
D03*
X287173D02*
D03*
X289142D02*
D03*
X291110D02*
D03*
X293079D02*
D03*
X295047D02*
D03*
X297016D02*
D03*
X298984D02*
D03*
X300953D02*
D03*
X302921D02*
D03*
X304890D02*
D03*
X306858D02*
D03*
X308827D02*
D03*
X310795D02*
D03*
X312764D02*
D03*
X314732D02*
D03*
X316701D02*
D03*
X318669D02*
D03*
X320638D02*
D03*
X322606D02*
D03*
X324575D02*
D03*
X326543D02*
D03*
X328512D02*
D03*
X330480D02*
D03*
X332449D02*
D03*
X334417D02*
D03*
X336386D02*
D03*
X338354D02*
D03*
X340323D02*
D03*
X342291D02*
D03*
X344260D02*
D03*
X346228D02*
D03*
X348197D02*
D03*
Y72050D02*
D03*
X346228D02*
D03*
X344260D02*
D03*
X342291D02*
D03*
X340323D02*
D03*
X338354D02*
D03*
X336386D02*
D03*
X334417D02*
D03*
X332449D02*
D03*
X330480D02*
D03*
X328512D02*
D03*
X326543D02*
D03*
X324575D02*
D03*
X322606D02*
D03*
X320638D02*
D03*
X318669D02*
D03*
X316701D02*
D03*
X314732D02*
D03*
X312764D02*
D03*
X310795D02*
D03*
X308827D02*
D03*
X306858D02*
D03*
X304890D02*
D03*
X302921D02*
D03*
X300953D02*
D03*
X298984D02*
D03*
X297016D02*
D03*
X295047D02*
D03*
X293079D02*
D03*
X291110D02*
D03*
X289142D02*
D03*
X287173D02*
D03*
X285205D02*
D03*
X283236D02*
D03*
X281268D02*
D03*
X279299D02*
D03*
X277331D02*
D03*
X275362D02*
D03*
X273394D02*
D03*
X271425D02*
D03*
X269457D02*
D03*
X267488D02*
D03*
X265520D02*
D03*
X263551D02*
D03*
X261583D02*
D03*
X259614D02*
D03*
X257646D02*
D03*
X255677D02*
D03*
X253709D02*
D03*
X251740D02*
D03*
X249772D02*
D03*
X247803D02*
D03*
D44*
X355950Y180197D02*
D03*
Y178228D02*
D03*
Y176260D02*
D03*
Y174291D02*
D03*
Y172323D02*
D03*
Y170354D02*
D03*
Y168386D02*
D03*
Y166417D02*
D03*
Y164449D02*
D03*
Y162480D02*
D03*
Y160512D02*
D03*
Y158543D02*
D03*
Y156575D02*
D03*
Y154606D02*
D03*
Y152638D02*
D03*
Y150669D02*
D03*
Y148701D02*
D03*
Y146732D02*
D03*
Y144764D02*
D03*
Y142795D02*
D03*
Y140827D02*
D03*
Y138858D02*
D03*
Y136890D02*
D03*
Y134921D02*
D03*
Y132953D02*
D03*
Y130984D02*
D03*
Y129016D02*
D03*
Y127047D02*
D03*
Y125079D02*
D03*
Y123110D02*
D03*
Y121142D02*
D03*
Y119173D02*
D03*
Y117205D02*
D03*
Y115236D02*
D03*
Y113268D02*
D03*
Y111299D02*
D03*
Y109331D02*
D03*
Y107362D02*
D03*
Y105394D02*
D03*
Y103425D02*
D03*
Y101457D02*
D03*
Y99488D02*
D03*
Y97520D02*
D03*
Y95551D02*
D03*
Y93583D02*
D03*
Y91614D02*
D03*
Y89646D02*
D03*
Y87677D02*
D03*
Y85709D02*
D03*
Y83740D02*
D03*
Y81772D02*
D03*
Y79803D02*
D03*
X240050D02*
D03*
Y81772D02*
D03*
Y83740D02*
D03*
Y85709D02*
D03*
Y87677D02*
D03*
Y89646D02*
D03*
Y91614D02*
D03*
Y93583D02*
D03*
Y95551D02*
D03*
Y97520D02*
D03*
Y99488D02*
D03*
Y101457D02*
D03*
Y103425D02*
D03*
Y105394D02*
D03*
Y107362D02*
D03*
Y109331D02*
D03*
Y111299D02*
D03*
Y113268D02*
D03*
Y115236D02*
D03*
Y117205D02*
D03*
Y119173D02*
D03*
Y121142D02*
D03*
Y123110D02*
D03*
Y125079D02*
D03*
Y127047D02*
D03*
Y129016D02*
D03*
Y130984D02*
D03*
Y132953D02*
D03*
Y134921D02*
D03*
Y136890D02*
D03*
Y138858D02*
D03*
Y140827D02*
D03*
Y142795D02*
D03*
Y144764D02*
D03*
Y146732D02*
D03*
Y148701D02*
D03*
Y150669D02*
D03*
Y152638D02*
D03*
Y154606D02*
D03*
Y156575D02*
D03*
Y158543D02*
D03*
Y160512D02*
D03*
Y162480D02*
D03*
Y164449D02*
D03*
Y166417D02*
D03*
Y168386D02*
D03*
Y170354D02*
D03*
Y172323D02*
D03*
Y174291D02*
D03*
Y176260D02*
D03*
Y178228D02*
D03*
Y180197D02*
D03*
D45*
X383000Y79100D02*
D03*
Y95100D02*
D03*
X388000Y79100D02*
D03*
Y95100D02*
D03*
X393000Y79100D02*
D03*
Y95100D02*
D03*
Y196500D02*
D03*
Y180500D02*
D03*
X388000Y196500D02*
D03*
Y180500D02*
D03*
X383000Y196500D02*
D03*
Y180500D02*
D03*
D46*
X426260Y69063D02*
D03*
X433740D02*
D03*
X430000Y76937D02*
D03*
D47*
X434114Y62448D02*
D03*
D48*
X433966Y55706D02*
D03*
X425895Y50982D02*
D03*
D49*
X434261Y50293D02*
D03*
X425600Y56100D02*
D03*
D50*
X425748Y62399D02*
D03*
D51*
X433996Y43994D02*
D03*
D52*
X425866Y44191D02*
D03*
D53*
X232200Y61572D02*
D03*
Y58028D02*
D03*
D54*
X411131Y309800D02*
D03*
X415068D02*
D03*
X231447Y182100D02*
D03*
X227509D02*
D03*
X229031Y131000D02*
D03*
X232968D02*
D03*
Y80000D02*
D03*
X229031D02*
D03*
X233169Y147500D02*
D03*
X229232D02*
D03*
X70031Y160000D02*
D03*
X73968D02*
D03*
X367969Y99400D02*
D03*
X364032D02*
D03*
Y117200D02*
D03*
X367969D02*
D03*
X447469Y145400D02*
D03*
X443532D02*
D03*
X367969Y171300D02*
D03*
X364032D02*
D03*
X335032Y25000D02*
D03*
X338968D02*
D03*
Y47000D02*
D03*
X335032D02*
D03*
Y51800D02*
D03*
X338968D02*
D03*
X372763Y175300D02*
D03*
X376700D02*
D03*
X267632Y275000D02*
D03*
X271568D02*
D03*
Y280000D02*
D03*
X267632D02*
D03*
Y285000D02*
D03*
X271568D02*
D03*
X364063Y166400D02*
D03*
X368000D02*
D03*
X228931Y123600D02*
D03*
X232869D02*
D03*
X220868Y139100D02*
D03*
X216932D02*
D03*
X187969Y295000D02*
D03*
X184031D02*
D03*
X415068Y285700D02*
D03*
X411131D02*
D03*
Y304900D02*
D03*
X415068D02*
D03*
Y295300D02*
D03*
X411131D02*
D03*
X82968Y170000D02*
D03*
X79031D02*
D03*
X72069Y210000D02*
D03*
X68132D02*
D03*
Y205000D02*
D03*
X72069D02*
D03*
X64969Y171000D02*
D03*
X61032D02*
D03*
X440531Y104500D02*
D03*
X444468D02*
D03*
X431531D02*
D03*
X435468D02*
D03*
X416669Y178600D02*
D03*
X412732D02*
D03*
X460069Y295900D02*
D03*
X456132D02*
D03*
X415068Y300100D02*
D03*
X411131D02*
D03*
X415068Y290500D02*
D03*
X411131D02*
D03*
X411031Y268800D02*
D03*
X414968D02*
D03*
X443532Y196000D02*
D03*
X447469D02*
D03*
X439732Y307500D02*
D03*
X443669D02*
D03*
X439732Y302700D02*
D03*
X443669D02*
D03*
X221669Y168000D02*
D03*
X217731D02*
D03*
Y158000D02*
D03*
X221669D02*
D03*
X232968Y114000D02*
D03*
X229031D02*
D03*
D55*
X313953Y250587D02*
D03*
X315921D02*
D03*
X304110Y231413D02*
D03*
X306079D02*
D03*
X308047D02*
D03*
X310016D02*
D03*
X311984D02*
D03*
X313953D02*
D03*
X315921D02*
D03*
X317890D02*
D03*
Y250587D02*
D03*
X311984D02*
D03*
X310016D02*
D03*
X308047D02*
D03*
X306079D02*
D03*
X304110D02*
D03*
D56*
X307063Y279748D02*
D03*
X314937D02*
D03*
X297220D02*
D03*
X324780D02*
D03*
D57*
X217937Y46000D02*
D03*
X210063D02*
D03*
X51000Y160000D02*
D03*
X58874D02*
D03*
X250637Y257000D02*
D03*
X242763D02*
D03*
X200063Y95000D02*
D03*
X207937D02*
D03*
X284637Y218969D02*
D03*
X276763D02*
D03*
X182437Y95200D02*
D03*
X174563D02*
D03*
X141837Y305400D02*
D03*
X133963D02*
D03*
X134063Y297000D02*
D03*
X141937D02*
D03*
X399963Y261300D02*
D03*
X407837D02*
D03*
D58*
X175000Y295000D02*
D03*
X176575D02*
D03*
X178150D02*
D03*
X171850D02*
D03*
X173425D02*
D03*
X178937Y293425D02*
D03*
X177362D02*
D03*
X175787D02*
D03*
X174213D02*
D03*
X172638D02*
D03*
X171063D02*
D03*
X178937Y296575D02*
D03*
X177362D02*
D03*
X175787D02*
D03*
X174213D02*
D03*
X172638D02*
D03*
X171063D02*
D03*
D59*
X35893Y56906D02*
D03*
Y45094D02*
D03*
X129000Y56906D02*
D03*
Y45094D02*
D03*
D60*
X17000Y130559D02*
D03*
Y105441D02*
D03*
D61*
X166831Y302761D02*
D03*
X183465D02*
D03*
D62*
X161024Y331600D02*
D03*
X165355D02*
D03*
X169686D02*
D03*
X174016D02*
D03*
X178347D02*
D03*
X182678D02*
D03*
X187009D02*
D03*
X191339D02*
D03*
D63*
X153824Y320852D02*
D03*
D64*
X154024Y305698D02*
D03*
D65*
X196024Y307722D02*
D03*
D66*
X154024Y316049D02*
D03*
D67*
X196024Y320458D02*
D03*
D68*
X39400Y118952D02*
D03*
Y134700D02*
D03*
D69*
X244000Y313953D02*
D03*
Y320647D02*
D03*
D70*
X351000Y196007D02*
D03*
Y199943D02*
D03*
X329500Y59031D02*
D03*
Y62968D02*
D03*
X231000Y108968D02*
D03*
Y105032D02*
D03*
X320638Y199943D02*
D03*
Y196007D02*
D03*
X224000Y111969D02*
D03*
Y108031D02*
D03*
X231000Y98968D02*
D03*
Y95031D02*
D03*
X263000Y59031D02*
D03*
Y62968D02*
D03*
X291000D02*
D03*
Y59031D02*
D03*
X346200D02*
D03*
Y62968D02*
D03*
X306900D02*
D03*
Y59031D02*
D03*
X346228Y196007D02*
D03*
Y199943D02*
D03*
X506000Y107468D02*
D03*
Y103532D02*
D03*
X279111Y42531D02*
D03*
Y46468D02*
D03*
X271864Y245632D02*
D03*
Y249569D02*
D03*
X324500Y59031D02*
D03*
Y62968D02*
D03*
X321000Y262032D02*
D03*
Y265968D02*
D03*
X326000D02*
D03*
Y262032D02*
D03*
X299000Y221969D02*
D03*
Y218032D02*
D03*
X289900Y231432D02*
D03*
Y235368D02*
D03*
X311000Y262032D02*
D03*
Y265968D02*
D03*
X417000Y260032D02*
D03*
Y263968D02*
D03*
X429913Y303000D02*
D03*
Y306937D02*
D03*
X161000Y91031D02*
D03*
Y94968D02*
D03*
X423200Y254969D02*
D03*
Y251031D02*
D03*
X433000D02*
D03*
Y254969D02*
D03*
X443100Y260032D02*
D03*
Y263968D02*
D03*
X453000D02*
D03*
Y260032D02*
D03*
X448000Y263968D02*
D03*
Y260032D02*
D03*
X453000Y283968D02*
D03*
Y280031D02*
D03*
X410400Y323731D02*
D03*
Y327668D02*
D03*
X425000Y306968D02*
D03*
Y303031D02*
D03*
X506500Y191469D02*
D03*
Y187531D02*
D03*
X377100Y69100D02*
D03*
Y73037D02*
D03*
X451600Y305869D02*
D03*
Y301932D02*
D03*
X156000Y91031D02*
D03*
Y94968D02*
D03*
X147000D02*
D03*
Y91031D02*
D03*
X142700D02*
D03*
Y94968D02*
D03*
X166000D02*
D03*
Y91031D02*
D03*
X293000Y199943D02*
D03*
Y196007D02*
D03*
X254500D02*
D03*
Y199943D02*
D03*
D71*
X355740Y306276D02*
D03*
X352000D02*
D03*
X348260D02*
D03*
Y315724D02*
D03*
X352000D02*
D03*
X355740D02*
D03*
D72*
X49100Y309900D02*
D03*
D73*
X40104Y281632D02*
D03*
X58096D02*
D03*
D74*
X437500Y26327D02*
D03*
X422500D02*
D03*
X442500Y26327D02*
D03*
X417500D02*
D03*
X427500Y26327D02*
D03*
X432500D02*
D03*
D75*
X452382Y5224D02*
D03*
X407618D02*
D03*
D76*
X452382Y24358D02*
D03*
X407618D02*
D03*
D77*
X31976Y220000D02*
D03*
X54024D02*
D03*
D78*
X182598Y37996D02*
D03*
Y20004D02*
D03*
D79*
X157402Y29000D02*
D03*
D80*
X183963Y77000D02*
D03*
X191837Y73260D02*
D03*
Y80740D02*
D03*
X191937Y56740D02*
D03*
Y49260D02*
D03*
X184063Y53000D02*
D03*
D81*
X409220Y172718D02*
D03*
X416700Y167600D02*
D03*
Y172718D02*
D03*
X409220Y167600D02*
D03*
Y170159D02*
D03*
D82*
X221000Y37299D02*
D03*
Y24701D02*
D03*
D83*
X240000Y25882D02*
D03*
X243740D02*
D03*
X236260Y36118D02*
D03*
X243740D02*
D03*
X236260Y25882D02*
D03*
X240000Y36118D02*
D03*
D84*
X320587Y234110D02*
D03*
Y236079D02*
D03*
Y238047D02*
D03*
Y240016D02*
D03*
Y241984D02*
D03*
Y243953D02*
D03*
Y245921D02*
D03*
Y247890D02*
D03*
X301413D02*
D03*
Y245921D02*
D03*
Y243953D02*
D03*
Y241984D02*
D03*
Y240016D02*
D03*
Y238047D02*
D03*
Y236079D02*
D03*
Y234110D02*
D03*
D85*
X311000Y241000D02*
D03*
D86*
X250417Y228945D02*
D03*
Y247055D02*
D03*
Y238000D02*
D03*
D87*
X227583D02*
D03*
D88*
X229000Y158079D02*
D03*
Y167921D02*
D03*
D89*
X423079Y262500D02*
D03*
X432921D02*
D03*
D90*
X282653Y249559D02*
D03*
X289347D02*
D03*
Y244441D02*
D03*
X282653D02*
D03*
D91*
X434800Y302835D02*
D03*
Y307165D02*
D03*
D92*
X147000Y50598D02*
D03*
Y75402D02*
D03*
X166000D02*
D03*
Y50598D02*
D03*
D93*
X401700Y324865D02*
D03*
Y307935D02*
D03*
D94*
X35893Y77588D02*
D03*
Y69714D02*
D03*
X19700Y198237D02*
D03*
Y190363D02*
D03*
X361000Y251937D02*
D03*
Y244063D02*
D03*
X328000Y25063D02*
D03*
Y32937D02*
D03*
X84000Y137063D02*
D03*
Y144937D02*
D03*
X142000Y289137D02*
D03*
Y281263D02*
D03*
D95*
X475200Y276543D02*
D03*
Y269457D02*
D03*
Y308543D02*
D03*
Y301457D02*
D03*
X458200Y309443D02*
D03*
Y302357D02*
D03*
X483200Y269457D02*
D03*
Y276543D02*
D03*
Y301457D02*
D03*
Y308543D02*
D03*
D96*
X408047Y274700D02*
D03*
X413953D02*
D03*
D97*
X410400Y280700D02*
D03*
X414731D02*
D03*
D98*
X496449Y103500D02*
D03*
Y108500D02*
D03*
Y113500D02*
D03*
Y118500D02*
D03*
Y123500D02*
D03*
Y128500D02*
D03*
Y133500D02*
D03*
Y138500D02*
D03*
Y143500D02*
D03*
X482551Y103500D02*
D03*
Y108500D02*
D03*
Y113500D02*
D03*
Y118500D02*
D03*
Y123500D02*
D03*
Y128500D02*
D03*
Y133500D02*
D03*
Y138500D02*
D03*
Y143500D02*
D03*
Y227500D02*
D03*
Y222500D02*
D03*
Y217500D02*
D03*
Y212500D02*
D03*
Y207500D02*
D03*
Y202500D02*
D03*
Y197500D02*
D03*
Y192500D02*
D03*
Y187500D02*
D03*
X496449Y227500D02*
D03*
Y222500D02*
D03*
Y217500D02*
D03*
Y212500D02*
D03*
Y207500D02*
D03*
Y202500D02*
D03*
Y197500D02*
D03*
Y192500D02*
D03*
Y187500D02*
D03*
D99*
Y148500D02*
D03*
X482551D02*
D03*
Y232500D02*
D03*
X496449D02*
D03*
D100*
X373800Y12988D02*
D03*
Y49012D02*
D03*
D101*
X223150Y132528D02*
D03*
Y123472D02*
D03*
X216850D02*
D03*
Y132528D02*
D03*
D102*
X149260Y289237D02*
D03*
X156740D02*
D03*
X153000Y281363D02*
D03*
X130000Y281463D02*
D03*
X133740Y289337D02*
D03*
X126260D02*
D03*
D103*
X224753Y176600D02*
D03*
X231447D02*
D03*
X364653Y142700D02*
D03*
X371346D02*
D03*
X271346Y291000D02*
D03*
X264653D02*
D03*
X389647Y69100D02*
D03*
X382954D02*
D03*
D104*
X218000Y108153D02*
D03*
Y114847D02*
D03*
X224000Y95653D02*
D03*
Y102347D02*
D03*
X262000Y35000D02*
D03*
Y28307D02*
D03*
X252100Y28207D02*
D03*
Y34900D02*
D03*
X272600Y41954D02*
D03*
Y48646D02*
D03*
X338100Y245153D02*
D03*
Y251847D02*
D03*
X355700Y288213D02*
D03*
Y294906D02*
D03*
X376700Y187047D02*
D03*
Y180353D02*
D03*
X134000Y75346D02*
D03*
Y68654D02*
D03*
X440500Y70053D02*
D03*
Y76746D02*
D03*
X419500Y70053D02*
D03*
Y76746D02*
D03*
X211900Y109046D02*
D03*
Y102354D02*
D03*
X218000Y95653D02*
D03*
Y102347D02*
D03*
D105*
X272000Y319772D02*
D03*
Y316228D02*
D03*
X266000D02*
D03*
Y319772D02*
D03*
X387000Y320228D02*
D03*
Y323772D02*
D03*
X381000D02*
D03*
Y320228D02*
D03*
X375000D02*
D03*
Y323772D02*
D03*
D106*
X454032Y291858D02*
D03*
X452032D02*
D03*
D107*
X234900Y292369D02*
D03*
Y288432D02*
D03*
X387000Y309032D02*
D03*
Y312968D02*
D03*
X381000Y309032D02*
D03*
Y312968D02*
D03*
X375000Y309032D02*
D03*
Y312968D02*
D03*
X279883Y235347D02*
D03*
Y231410D02*
D03*
X284783D02*
D03*
Y235347D02*
D03*
X295500Y249468D02*
D03*
Y245532D02*
D03*
X276664Y249569D02*
D03*
Y245632D02*
D03*
X304000Y218032D02*
D03*
Y221969D02*
D03*
X301000Y262032D02*
D03*
Y265968D02*
D03*
X306000Y262032D02*
D03*
Y265968D02*
D03*
X260000Y316032D02*
D03*
Y319969D02*
D03*
X272000Y309668D02*
D03*
Y305732D02*
D03*
X266000D02*
D03*
Y309668D02*
D03*
X33000Y28969D02*
D03*
Y25032D02*
D03*
X38000Y28969D02*
D03*
Y25032D02*
D03*
X127472Y28969D02*
D03*
Y25032D02*
D03*
X132500Y28969D02*
D03*
Y25032D02*
D03*
X269500Y196031D02*
D03*
Y199969D02*
D03*
X259500D02*
D03*
Y196031D02*
D03*
X211400Y118968D02*
D03*
Y115032D02*
D03*
X138000Y100969D02*
D03*
Y97031D02*
D03*
X128000D02*
D03*
Y100969D02*
D03*
X133000Y97031D02*
D03*
Y100969D02*
D03*
X134500Y122968D02*
D03*
Y119032D02*
D03*
X139500Y122968D02*
D03*
Y119032D02*
D03*
X248000Y62968D02*
D03*
Y59031D02*
D03*
X258000Y62968D02*
D03*
Y59031D02*
D03*
X253000Y62968D02*
D03*
Y59031D02*
D03*
X161000Y129969D02*
D03*
Y126031D02*
D03*
X156000Y129969D02*
D03*
Y126031D02*
D03*
X77100Y206031D02*
D03*
Y209968D02*
D03*
X55500Y144468D02*
D03*
Y140532D02*
D03*
X66500Y116469D02*
D03*
Y112531D02*
D03*
X61500Y116469D02*
D03*
Y112531D02*
D03*
X83000Y177732D02*
D03*
Y181668D02*
D03*
D108*
X416200Y44161D02*
D03*
Y56839D02*
D03*
X443739Y56631D02*
D03*
Y43954D02*
D03*
D109*
X54000Y196858D02*
D03*
Y179142D02*
D03*
D110*
X431118Y330528D02*
D03*
Y321472D02*
D03*
X453559D02*
D03*
X470882D02*
D03*
Y330528D02*
D03*
D111*
X239605Y219000D02*
D03*
X227795D02*
D03*
D112*
X243831Y306000D02*
D03*
X247768D02*
D03*
Y301000D02*
D03*
X243831D02*
D03*
X183968Y286000D02*
D03*
X180032D02*
D03*
X183968Y281000D02*
D03*
X180032D02*
D03*
X167032Y276000D02*
D03*
X170968D02*
D03*
X167032Y281000D02*
D03*
X170968D02*
D03*
X167032Y286000D02*
D03*
X170968D02*
D03*
X232968Y119000D02*
D03*
X229031D02*
D03*
X75468Y152000D02*
D03*
X71531D02*
D03*
X173969Y108500D02*
D03*
X170031D02*
D03*
Y116000D02*
D03*
X173969D02*
D03*
Y103500D02*
D03*
X170031D02*
D03*
X173969Y121000D02*
D03*
X170031D02*
D03*
X184031Y67000D02*
D03*
X187969D02*
D03*
X414968Y201700D02*
D03*
X411031D02*
D03*
X414968Y221300D02*
D03*
X411031D02*
D03*
X414968Y206600D02*
D03*
X411031D02*
D03*
X414968Y216500D02*
D03*
X411031D02*
D03*
X414968Y226300D02*
D03*
X411031D02*
D03*
X414968Y231200D02*
D03*
X411031D02*
D03*
X414968Y211500D02*
D03*
X411031D02*
D03*
X416600Y157900D02*
D03*
X412663D02*
D03*
X187969Y62000D02*
D03*
X184031D02*
D03*
X248031Y19000D02*
D03*
X251969D02*
D03*
X243669D02*
D03*
X239732D02*
D03*
X70031Y165000D02*
D03*
X73968D02*
D03*
X70031Y220000D02*
D03*
X73968D02*
D03*
Y225000D02*
D03*
X70031D02*
D03*
X79031Y165000D02*
D03*
X82968D02*
D03*
X62532Y151976D02*
D03*
X66469D02*
D03*
D113*
X448500Y163000D02*
D03*
Y168000D02*
D03*
X453500Y163000D02*
D03*
Y168000D02*
D03*
X458500Y163000D02*
D03*
Y168000D02*
D03*
X463500D02*
D03*
Y163000D02*
D03*
X443500Y168000D02*
D03*
Y163000D02*
D03*
Y214500D02*
D03*
Y219500D02*
D03*
X463500Y214500D02*
D03*
Y219500D02*
D03*
X458500D02*
D03*
Y214500D02*
D03*
X453500Y219500D02*
D03*
Y214500D02*
D03*
X448500Y219500D02*
D03*
Y214500D02*
D03*
D114*
X292890Y34905D02*
D03*
X294859D02*
D03*
X288953D02*
D03*
X290922D02*
D03*
X279111D02*
D03*
X285016D02*
D03*
X277142D02*
D03*
X286985D02*
D03*
X283048D02*
D03*
X281079D02*
D03*
X275174D02*
D03*
X273205D02*
D03*
X296827D02*
D03*
X298796D02*
D03*
D115*
X270095Y24472D02*
D03*
X301906D02*
D03*
D116*
X440630Y83500D02*
D03*
Y88500D02*
D03*
Y93500D02*
D03*
Y98500D02*
D03*
X419370Y83500D02*
D03*
Y88500D02*
D03*
Y93500D02*
D03*
Y98500D02*
D03*
D117*
X243905Y49000D02*
D03*
X232095D02*
D03*
D118*
X31976Y198212D02*
D03*
Y187188D02*
D03*
D119*
X72000Y186000D02*
D03*
D121*
X61500Y123272D02*
D03*
X66500D02*
D03*
X71500D02*
D03*
X76500D02*
D03*
Y144728D02*
D03*
X71500D02*
D03*
X66500D02*
D03*
X61500D02*
D03*
D200*
X438500Y165500D02*
D03*
X468500Y169496D02*
D03*
Y161504D02*
D03*
Y213004D02*
D03*
Y220996D02*
D03*
X438500Y217000D02*
D03*
D223*
X447795Y293827D02*
D03*
Y291858D02*
D03*
Y289890D02*
D03*
Y287921D02*
D03*
Y285953D02*
D03*
Y283984D02*
D03*
Y282016D02*
D03*
Y280047D02*
D03*
Y278079D02*
D03*
Y276110D02*
D03*
Y274142D02*
D03*
Y272173D02*
D03*
X445827Y295795D02*
D03*
Y290874D02*
D03*
Y288906D02*
D03*
Y286937D02*
D03*
Y284968D02*
D03*
Y283000D02*
D03*
Y281031D02*
D03*
Y279063D02*
D03*
Y275126D02*
D03*
X444842Y272173D02*
D03*
X443858Y295795D02*
D03*
X442874Y293827D02*
D03*
Y272173D02*
D03*
X441890Y295795D02*
D03*
Y270205D02*
D03*
X440906Y293827D02*
D03*
X439921Y295795D02*
D03*
Y270205D02*
D03*
X438937Y293827D02*
D03*
Y272173D02*
D03*
X437953Y295795D02*
D03*
Y270205D02*
D03*
X436969Y293827D02*
D03*
Y272173D02*
D03*
X435984Y295795D02*
D03*
Y270205D02*
D03*
X435000Y272173D02*
D03*
X434016Y295795D02*
D03*
Y270205D02*
D03*
X433032Y272173D02*
D03*
X432047Y295795D02*
D03*
Y270205D02*
D03*
X431063Y293827D02*
D03*
Y272173D02*
D03*
X430079Y270205D02*
D03*
X429095Y293827D02*
D03*
Y272173D02*
D03*
X428110Y295795D02*
D03*
X427126Y272173D02*
D03*
X426142Y270205D02*
D03*
X427126Y293827D02*
D03*
X424173Y295795D02*
D03*
Y288906D02*
D03*
Y286937D02*
D03*
Y284968D02*
D03*
Y283000D02*
D03*
Y281031D02*
D03*
Y279063D02*
D03*
Y277095D02*
D03*
Y275126D02*
D03*
Y273158D02*
D03*
Y270205D02*
D03*
X422205Y293827D02*
D03*
Y289890D02*
D03*
Y287921D02*
D03*
Y285953D02*
D03*
Y283984D02*
D03*
Y282016D02*
D03*
Y280047D02*
D03*
Y278079D02*
D03*
Y291858D02*
D03*
D224*
X153000Y110000D02*
D03*
D225*
X75937Y194267D02*
D03*
X73968D02*
D03*
X72000D02*
D03*
X70031D02*
D03*
X68063D02*
D03*
X75937Y177732D02*
D03*
X73968D02*
D03*
X72000D02*
D03*
X70031D02*
D03*
X68063D02*
D03*
D240*
X500492Y259842D02*
D03*
Y74803D02*
D03*
X11319Y259744D02*
D03*
Y74803D02*
D03*
D241*
X109103Y28819D02*
D03*
X56898D02*
D03*
X99103D02*
D03*
X66898D02*
D03*
D242*
X113493Y56890D02*
D03*
X52508D02*
D03*
D243*
X105501Y44882D02*
D03*
X60501D02*
D03*
D244*
X105501Y69882D02*
D03*
X95501D02*
D03*
X100501Y79882D02*
D03*
X90501D02*
D03*
X65501Y69882D02*
D03*
X75501D02*
D03*
X85501D02*
D03*
X80501Y79882D02*
D03*
X70501D02*
D03*
X60501D02*
D03*
D245*
X483213Y291500D02*
D03*
D246*
X285134Y293843D02*
D03*
X336866D02*
D03*
D247*
X438500Y175500D02*
D03*
Y155500D02*
D03*
X461000Y175500D02*
D03*
Y155500D02*
D03*
Y207000D02*
D03*
Y227000D02*
D03*
X438500Y207000D02*
D03*
Y227000D02*
D03*
D248*
X83496Y293220D02*
D03*
D249*
X102000Y305031D02*
D03*
Y281410D02*
D03*
M02*
